{
	"asset":{
		"generator":"Khronos glTF Blender I/O v4.5.49",
		"version":"2.0"
	},
	"scene":0,
	"scenes":[
		{
			"name":"Scene",
			"nodes":[
				2
			]
		}
	],
	"nodes":[
		{
			"mesh":0,
			"name":"Object_5"
		},
		{
			"children":[
				0
			],
			"name":"overcooked_assets.obj.cleaner.materialmerger.gles"
		},
		{
			"children":[
				1
			],
			"name":"Sketchfab_model",
			"rotation":[
				-0.70710688829422,
				0,
				0,
				0.7071066498756409
			]
		}
	],
	"materials":[
		{
			"doubleSided":true,
			"name":"Kitchen_Utensils.010",
			"pbrMetallicRoughness":{
				"baseColorTexture":{
					"index":0
				},
				"metallicRoughnessTexture":{
					"index":1
				}
			}
		}
	],
	"meshes":[
		{
			"name":"Object_3.024",
			"primitives":[
				{
					"attributes":{
						"POSITION":0,
						"NORMAL":1,
						"TEXCOORD_0":2
					},
					"indices":3,
					"material":0
				}
			]
		}
	],
	"textures":[
		{
			"sampler":0,
			"source":0
		},
		{
			"sampler":0,
			"source":1
		}
	],
	"images":[
		{
			"mimeType":"image/png",
			"name":"Image_9",
			"uri":"Image_9.png"
		},
		{
			"mimeType":"image/png",
			"name":"Image_10",
			"uri":"Image_10.png"
		}
	],
	"accessors":[
		{
			"bufferView":0,
			"componentType":5126,
			"count":326,
			"max":[
				8.36738395690918,
				4.559666156768799,
				0.5110785961151123
			],
			"min":[
				-1.0131410360336304,
				-0.4313530921936035,
				-0.08553439378738403
			],
			"type":"VEC3"
		},
		{
			"bufferView":1,
			"componentType":5126,
			"count":326,
			"type":"VEC3"
		},
		{
			"bufferView":2,
			"componentType":5126,
			"count":326,
			"type":"VEC2"
		},
		{
			"bufferView":3,
			"componentType":5123,
			"count":867,
			"type":"SCALAR"
		}
	],
	"bufferViews":[
		{
			"buffer":0,
			"byteLength":3912,
			"byteOffset":0,
			"target":34962
		},
		{
			"buffer":0,
			"byteLength":3912,
			"byteOffset":3912,
			"target":34962
		},
		{
			"buffer":0,
			"byteLength":2608,
			"byteOffset":7824,
			"target":34962
		},
		{
			"buffer":0,
			"byteLength":1734,
			"byteOffset":10432,
			"target":34963
		}
	],
	"samplers":[
		{
			"magFilter":9729,
			"minFilter":9987
		}
	],
	"buffers":[
		{
			"byteLength":12168,
			"uri":"cuttingBoardNoKnife.bin"
		}
	]
}
