{
	"asset":{
		"generator":"Khronos glTF Blender I/O v4.5.49",
		"version":"2.0"
	},
	"scene":0,
	"scenes":[
		{
			"name":"Scene",
			"nodes":[
				1
			]
		}
	],
	"nodes":[
		{
			"mesh":0,
			"name":"3.002"
		},
		{
			"children":[
				0
			],
			"name":"Sketchfab_model.004",
			"rotation":[
				-0.70710688829422,
				0,
				0,
				0.7071066498756409
			]
		}
	],
	"materials":[
		{
			"doubleSided":true,
			"name":"Kitchen_Cabins.009.1001",
			"pbrMetallicRoughness":{
				"baseColorTexture":{
					"index":0
				},
				"metallicRoughnessTexture":{
					"index":1
				}
			}
		}
	],
	"meshes":[
		{
			"name":"Object_1.001",
			"primitives":[
				{
					"attributes":{
						"POSITION":0,
						"NORMAL":1,
						"TEXCOORD_0":2
					},
					"indices":3,
					"material":0
				}
			]
		}
	],
	"textures":[
		{
			"sampler":0,
			"source":0
		},
		{
			"sampler":0,
			"source":1
		}
	],
	"images":[
		{
			"mimeType":"image/png",
			"name":"foodTable.1001",
			"uri":"foodTable.1001.png"
		},
		{
			"mimeType":"image/png",
			"name":"Image_4",
			"uri":"Image_4.png"
		}
	],
	"accessors":[
		{
			"bufferView":0,
			"componentType":5126,
			"count":458,
			"max":[
				1,
				1,
				0.45302698016166687
			],
			"min":[
				-1,
				-1,
				-0.45302698016166687
			],
			"type":"VEC3"
		},
		{
			"bufferView":1,
			"componentType":5126,
			"count":458,
			"type":"VEC3"
		},
		{
			"bufferView":2,
			"componentType":5126,
			"count":458,
			"type":"VEC2"
		},
		{
			"bufferView":3,
			"componentType":5123,
			"count":696,
			"type":"SCALAR"
		}
	],
	"bufferViews":[
		{
			"buffer":0,
			"byteLength":5496,
			"byteOffset":0,
			"target":34962
		},
		{
			"buffer":0,
			"byteLength":5496,
			"byteOffset":5496,
			"target":34962
		},
		{
			"buffer":0,
			"byteLength":3664,
			"byteOffset":10992,
			"target":34962
		},
		{
			"buffer":0,
			"byteLength":1392,
			"byteOffset":14656,
			"target":34963
		}
	],
	"samplers":[
		{
			"magFilter":9729,
			"minFilter":9987
		}
	],
	"buffers":[
		{
			"byteLength":16048,
			"uri":"foodTable.bin"
		}
	]
}
