{
	"asset":{
		"generator":"Khronos glTF Blender I/O v4.5.49",
		"version":"2.0"
	},
	"scene":0,
	"scenes":[
		{
			"name":"Scene",
			"nodes":[
				3
			]
		}
	],
	"nodes":[
		{
			"mesh":0,
			"name":"3"
		},
		{
			"mesh":1,
			"name":"3.001"
		},
		{
			"mesh":2,
			"name":"3.002"
		},
		{
			"children":[
				0,
				1,
				2
			],
			"name":"Sketchfab_model",
			"rotation":[
				-0.70710688829422,
				0,
				0,
				0.7071066498756409
			]
		}
	],
	"materials":[
		{
			"doubleSided":true,
			"name":"Kitchen_Cabins.007",
			"pbrMetallicRoughness":{
				"baseColorTexture":{
					"index":0
				},
				"metallicRoughnessTexture":{
					"index":1
				}
			}
		}
	],
	"meshes":[
		{
			"name":"Object_1.017",
			"primitives":[
				{
					"attributes":{
						"POSITION":0,
						"NORMAL":1,
						"TEXCOORD_0":2
					},
					"indices":3,
					"material":0
				}
			]
		},
		{
			"name":"Object_1.022",
			"primitives":[
				{
					"attributes":{
						"POSITION":4,
						"NORMAL":5,
						"TEXCOORD_0":6
					},
					"indices":7,
					"material":0
				}
			]
		},
		{
			"name":"Object_1.023",
			"primitives":[
				{
					"attributes":{
						"POSITION":8,
						"NORMAL":9,
						"TEXCOORD_0":10
					},
					"indices":11,
					"material":0
				}
			]
		}
	],
	"textures":[
		{
			"sampler":0,
			"source":0
		},
		{
			"sampler":0,
			"source":1
		}
	],
	"images":[
		{
			"mimeType":"image/png",
			"name":"Image_3",
			"uri":"Image_3.png"
		},
		{
			"mimeType":"image/png",
			"name":"Image_4",
			"uri":"Image_4.png"
		}
	],
	"accessors":[
		{
			"bufferView":0,
			"componentType":5126,
			"count":338,
			"max":[
				0.9999849796295166,
				1.4001749753952026,
				0.9060540199279785
			],
			"min":[
				-1.0000150203704834,
				-0.5998250246047974,
				0
			],
			"type":"VEC3"
		},
		{
			"bufferView":1,
			"componentType":5126,
			"count":338,
			"type":"VEC3"
		},
		{
			"bufferView":2,
			"componentType":5126,
			"count":338,
			"type":"VEC2"
		},
		{
			"bufferView":3,
			"componentType":5123,
			"count":540,
			"type":"SCALAR"
		},
		{
			"bufferView":4,
			"componentType":5126,
			"count":105,
			"max":[
				0.9999849796295166,
				1.4001749753952026,
				0.9060540199279785
			],
			"min":[
				-1.0000150203704834,
				-0.5998250246047974,
				0
			],
			"type":"VEC3"
		},
		{
			"bufferView":5,
			"componentType":5126,
			"count":105,
			"type":"VEC3"
		},
		{
			"bufferView":6,
			"componentType":5126,
			"count":105,
			"type":"VEC2"
		},
		{
			"bufferView":7,
			"componentType":5123,
			"count":141,
			"type":"SCALAR"
		},
		{
			"bufferView":8,
			"componentType":5126,
			"count":15,
			"max":[
				0.9999849796295166,
				1.4001749753952026,
				0.8211349844932556
			],
			"min":[
				-1.0000150203704834,
				-0.5998250246047974,
				0
			],
			"type":"VEC3"
		},
		{
			"bufferView":9,
			"componentType":5126,
			"count":15,
			"type":"VEC3"
		},
		{
			"bufferView":10,
			"componentType":5126,
			"count":15,
			"type":"VEC2"
		},
		{
			"bufferView":11,
			"componentType":5123,
			"count":15,
			"type":"SCALAR"
		}
	],
	"bufferViews":[
		{
			"buffer":0,
			"byteLength":4056,
			"byteOffset":0,
			"target":34962
		},
		{
			"buffer":0,
			"byteLength":4056,
			"byteOffset":4056,
			"target":34962
		},
		{
			"buffer":0,
			"byteLength":2704,
			"byteOffset":8112,
			"target":34962
		},
		{
			"buffer":0,
			"byteLength":1080,
			"byteOffset":10816,
			"target":34963
		},
		{
			"buffer":0,
			"byteLength":1260,
			"byteOffset":11896,
			"target":34962
		},
		{
			"buffer":0,
			"byteLength":1260,
			"byteOffset":13156,
			"target":34962
		},
		{
			"buffer":0,
			"byteLength":840,
			"byteOffset":14416,
			"target":34962
		},
		{
			"buffer":0,
			"byteLength":282,
			"byteOffset":15256,
			"target":34963
		},
		{
			"buffer":0,
			"byteLength":180,
			"byteOffset":15540,
			"target":34962
		},
		{
			"buffer":0,
			"byteLength":180,
			"byteOffset":15720,
			"target":34962
		},
		{
			"buffer":0,
			"byteLength":120,
			"byteOffset":15900,
			"target":34962
		},
		{
			"buffer":0,
			"byteLength":30,
			"byteOffset":16020,
			"target":34963
		}
	],
	"samplers":[
		{
			"magFilter":9729,
			"minFilter":9987
		}
	],
	"buffers":[
		{
			"byteLength":16052,
			"uri":"foodTable.bin"
		}
	]
}
