{
	"asset":{
		"generator":"Khronos glTF Blender I/O v4.5.49",
		"version":"2.0"
	},
	"scene":0,
	"scenes":[
		{
			"name":"Scene",
			"nodes":[
				5
			]
		}
	],
	"nodes":[
		{
			"mesh":0,
			"name":"box"
		},
		{
			"mesh":1,
			"name":"back",
			"rotation":[
				-0.70710688829422,
				0,
				0,
				0.7071066498756409
			],
			"translation":[
				0,
				-0.40306711196899414,
				0.9987760782241821
			]
		},
		{
			"mesh":2,
			"name":"cover",
			"rotation":[
				-0.70710688829422,
				0,
				0,
				0.7071066498756409
			]
		},
		{
			"mesh":3,
			"name":"desktop",
			"rotation":[
				-0.70710688829422,
				0,
				0,
				0.7071066498756409
			],
			"translation":[
				0,
				-0.40306711196899414,
				0.9987760782241821
			]
		},
		{
			"children":[
				1,
				2,
				3
			],
			"name":"\u7a7a\u7269\u4f53",
			"rotation":[
				0.70710688829422,
				0,
				0,
				0.7071066498756409
			],
			"translation":[
				0,
				0.9987760186195374,
				0.4030674397945404
			]
		},
		{
			"children":[
				0,
				4
			],
			"name":"Sketchfab_model.004",
			"rotation":[
				-0.70710688829422,
				0,
				0,
				0.7071066498756409
			]
		}
	],
	"animations":[
		{
			"channels":[
				{
					"sampler":0,
					"target":{
						"node":4,
						"path":"translation"
					}
				},
				{
					"sampler":1,
					"target":{
						"node":4,
						"path":"rotation"
					}
				},
				{
					"sampler":2,
					"target":{
						"node":4,
						"path":"scale"
					}
				}
			],
			"name":"coverOpen",
			"samplers":[
				{
					"input":16,
					"interpolation":"STEP",
					"output":17
				},
				{
					"input":18,
					"interpolation":"LINEAR",
					"output":19
				},
				{
					"input":16,
					"interpolation":"STEP",
					"output":20
				}
			]
		}
	],
	"materials":[
		{
			"doubleSided":true,
			"name":"Kitchen_Cabins.009",
			"pbrMetallicRoughness":{
				"baseColorTexture":{
					"index":0
				},
				"metallicRoughnessTexture":{
					"index":1
				}
			}
		},
		{
			"doubleSided":true,
			"name":"\u6750\u8d28.001",
			"pbrMetallicRoughness":{
				"baseColorTexture":{
					"index":2
				},
				"metallicRoughnessTexture":{
					"index":3
				}
			}
		},
		{
			"doubleSided":true,
			"name":"desktop",
			"pbrMetallicRoughness":{
				"baseColorTexture":{
					"index":4
				},
				"metallicFactor":0,
				"roughnessFactor":0.5
			}
		}
	],
	"meshes":[
		{
			"name":"Object_1.011",
			"primitives":[
				{
					"attributes":{
						"POSITION":0,
						"NORMAL":1,
						"TEXCOORD_0":2
					},
					"indices":3,
					"material":0
				}
			]
		},
		{
			"name":"Object_1.003",
			"primitives":[
				{
					"attributes":{
						"POSITION":4,
						"NORMAL":5,
						"TEXCOORD_0":6
					},
					"indices":7,
					"material":1
				}
			]
		},
		{
			"name":"Object_1.002",
			"primitives":[
				{
					"attributes":{
						"POSITION":8,
						"NORMAL":9,
						"TEXCOORD_0":10
					},
					"indices":11,
					"material":0
				}
			]
		},
		{
			"name":"Object_1.001",
			"primitives":[
				{
					"attributes":{
						"POSITION":12,
						"NORMAL":13,
						"TEXCOORD_0":14,
						"TEXCOORD_1":15
					},
					"indices":7,
					"material":2
				}
			]
		}
	],
	"textures":[
		{
			"sampler":0,
			"source":0
		},
		{
			"sampler":0,
			"source":1
		},
		{
			"sampler":0,
			"source":2
		},
		{
			"sampler":0,
			"source":3
		},
		{
			"sampler":0,
			"source":4
		}
	],
	"images":[
		{
			"mimeType":"image/png",
			"name":"Image_3",
			"uri":"Image_3.png"
		},
		{
			"mimeType":"image/png",
			"name":"Image_4",
			"uri":"Image_4.png"
		},
		{
			"mimeType":"image/png",
			"name":"meatBack",
			"uri":"meatBack.png"
		},
		{
			"mimeType":"image/png",
			"name":"metal",
			"uri":"metal.png"
		},
		{
			"mimeType":"image/png",
			"name":"meatDeskTop",
			"uri":"meatDeskTop.png"
		}
	],
	"accessors":[
		{
			"bufferView":0,
			"componentType":5126,
			"count":311,
			"max":[
				1,
				1,
				0.36810794472694397
			],
			"min":[
				-1,
				-1,
				-0.45302698016166687
			],
			"type":"VEC3"
		},
		{
			"bufferView":1,
			"componentType":5126,
			"count":311,
			"type":"VEC3"
		},
		{
			"bufferView":2,
			"componentType":5126,
			"count":311,
			"type":"VEC2"
		},
		{
			"bufferView":3,
			"componentType":5123,
			"count":495,
			"type":"SCALAR"
		},
		{
			"bufferView":4,
			"componentType":5126,
			"count":4,
			"max":[
				0.9837750196456909,
				0.9837758541107178,
				0.3531079590320587
			],
			"min":[
				-0.9837749600410461,
				-0.983773946762085,
				0.3531079590320587
			],
			"type":"VEC3"
		},
		{
			"bufferView":5,
			"componentType":5126,
			"count":4,
			"type":"VEC3"
		},
		{
			"bufferView":6,
			"componentType":5126,
			"count":4,
			"type":"VEC2"
		},
		{
			"bufferView":7,
			"componentType":5123,
			"count":6,
			"type":"SCALAR"
		},
		{
			"bufferView":8,
			"componentType":5126,
			"count":143,
			"max":[
				0.9987750053405762,
				1.7881393432617188e-07,
				0.04995957016944885
			],
			"min":[
				-0.9987750053405762,
				-1.9975500106811523,
				-0.0499594509601593
			],
			"type":"VEC3"
		},
		{
			"bufferView":9,
			"componentType":5126,
			"count":143,
			"type":"VEC3"
		},
		{
			"bufferView":10,
			"componentType":5126,
			"count":143,
			"type":"VEC2"
		},
		{
			"bufferView":11,
			"componentType":5123,
			"count":189,
			"type":"SCALAR"
		},
		{
			"bufferView":12,
			"componentType":5126,
			"count":4,
			"max":[
				0.7520689964294434,
				0.7520699501037598,
				0.41434594988822937
			],
			"min":[
				-0.7520699501037598,
				-0.7520689964294434,
				0.41434594988822937
			],
			"type":"VEC3"
		},
		{
			"bufferView":13,
			"componentType":5126,
			"count":4,
			"type":"VEC3"
		},
		{
			"bufferView":14,
			"componentType":5126,
			"count":4,
			"type":"VEC2"
		},
		{
			"bufferView":15,
			"componentType":5126,
			"count":4,
			"type":"VEC2"
		},
		{
			"bufferView":16,
			"componentType":5126,
			"count":2,
			"max":[
				1.3333333333333333
			],
			"min":[
				0.016666666666666666
			],
			"type":"SCALAR"
		},
		{
			"bufferView":17,
			"componentType":5126,
			"count":2,
			"type":"VEC3"
		},
		{
			"bufferView":18,
			"componentType":5126,
			"count":80,
			"max":[
				1.3333333333333333
			],
			"min":[
				0.016666666666666666
			],
			"type":"SCALAR"
		},
		{
			"bufferView":19,
			"componentType":5126,
			"count":80,
			"type":"VEC4"
		},
		{
			"bufferView":20,
			"componentType":5126,
			"count":2,
			"type":"VEC3"
		}
	],
	"bufferViews":[
		{
			"buffer":0,
			"byteLength":3732,
			"byteOffset":0,
			"target":34962
		},
		{
			"buffer":0,
			"byteLength":3732,
			"byteOffset":3732,
			"target":34962
		},
		{
			"buffer":0,
			"byteLength":2488,
			"byteOffset":7464,
			"target":34962
		},
		{
			"buffer":0,
			"byteLength":990,
			"byteOffset":9952,
			"target":34963
		},
		{
			"buffer":0,
			"byteLength":48,
			"byteOffset":10944,
			"target":34962
		},
		{
			"buffer":0,
			"byteLength":48,
			"byteOffset":10992,
			"target":34962
		},
		{
			"buffer":0,
			"byteLength":32,
			"byteOffset":11040,
			"target":34962
		},
		{
			"buffer":0,
			"byteLength":12,
			"byteOffset":11072,
			"target":34963
		},
		{
			"buffer":0,
			"byteLength":1716,
			"byteOffset":11084,
			"target":34962
		},
		{
			"buffer":0,
			"byteLength":1716,
			"byteOffset":12800,
			"target":34962
		},
		{
			"buffer":0,
			"byteLength":1144,
			"byteOffset":14516,
			"target":34962
		},
		{
			"buffer":0,
			"byteLength":378,
			"byteOffset":15660,
			"target":34963
		},
		{
			"buffer":0,
			"byteLength":48,
			"byteOffset":16040,
			"target":34962
		},
		{
			"buffer":0,
			"byteLength":48,
			"byteOffset":16088,
			"target":34962
		},
		{
			"buffer":0,
			"byteLength":32,
			"byteOffset":16136,
			"target":34962
		},
		{
			"buffer":0,
			"byteLength":32,
			"byteOffset":16168,
			"target":34962
		},
		{
			"buffer":0,
			"byteLength":8,
			"byteOffset":16200
		},
		{
			"buffer":0,
			"byteLength":24,
			"byteOffset":16208
		},
		{
			"buffer":0,
			"byteLength":320,
			"byteOffset":16232
		},
		{
			"buffer":0,
			"byteLength":1280,
			"byteOffset":16552
		},
		{
			"buffer":0,
			"byteLength":24,
			"byteOffset":17832
		}
	],
	"samplers":[
		{
			"magFilter":9729,
			"minFilter":9987
		}
	],
	"buffers":[
		{
			"byteLength":17856,
			"uri":"meatPattyTable.bin"
		}
	]
}
