{
	"asset":{
		"generator":"Khronos glTF Blender I/O v4.5.49",
		"version":"2.0"
	},
	"scene":0,
	"scenes":[
		{
			"name":"Scene",
			"nodes":[
				2
			]
		}
	],
	"nodes":[
		{
			"mesh":0,
			"name":"pingdiguo"
		},
		{
			"children":[
				0
			],
			"name":"overcooked_assets.obj.cleaner.materialmerger.gles"
		},
		{
			"children":[
				1
			],
			"name":"Sketchfab_model.002",
			"rotation":[
				-0.70710688829422,
				0,
				0,
				0.7071066498756409
			]
		}
	],
	"materials":[
		{
			"doubleSided":true,
			"name":"Kitchen_Utensils.008",
			"pbrMetallicRoughness":{
				"baseColorTexture":{
					"index":0
				},
				"metallicRoughnessTexture":{
					"index":1
				}
			}
		}
	],
	"meshes":[
		{
			"name":"Object_3.018",
			"primitives":[
				{
					"attributes":{
						"POSITION":0,
						"NORMAL":1,
						"TEXCOORD_0":2
					},
					"indices":3,
					"material":0
				}
			]
		}
	],
	"textures":[
		{
			"sampler":0,
			"source":0
		},
		{
			"sampler":0,
			"source":1
		}
	],
	"images":[
		{
			"mimeType":"image/png",
			"name":"Image_9",
			"uri":"Image_9.png"
		},
		{
			"mimeType":"image/png",
			"name":"Image_10",
			"uri":"Image_10.png"
		}
	],
	"accessors":[
		{
			"bufferView":0,
			"componentType":5126,
			"count":965,
			"max":[
				0.627993106842041,
				0.6279920339584351,
				0.20686301589012146
			],
			"min":[
				-0.6279921531677246,
				-1.529008150100708,
				-0.04869093745946884
			],
			"type":"VEC3"
		},
		{
			"bufferView":1,
			"componentType":5126,
			"count":965,
			"type":"VEC3"
		},
		{
			"bufferView":2,
			"componentType":5126,
			"count":965,
			"type":"VEC2"
		},
		{
			"bufferView":3,
			"componentType":5123,
			"count":2019,
			"type":"SCALAR"
		}
	],
	"bufferViews":[
		{
			"buffer":0,
			"byteLength":11580,
			"byteOffset":0,
			"target":34962
		},
		{
			"buffer":0,
			"byteLength":11580,
			"byteOffset":11580,
			"target":34962
		},
		{
			"buffer":0,
			"byteLength":7720,
			"byteOffset":23160,
			"target":34962
		},
		{
			"buffer":0,
			"byteLength":4038,
			"byteOffset":30880,
			"target":34963
		}
	],
	"samplers":[
		{
			"magFilter":9729,
			"minFilter":9987
		}
	],
	"buffers":[
		{
			"byteLength":34920,
			"uri":"pan.bin"
		}
	]
}
