{
	"asset":{
		"generator":"Khronos glTF Blender I/O v4.5.49",
		"version":"2.0"
	},
	"scene":0,
	"scenes":[
		{
			"name":"Scene",
			"nodes":[
				2
			]
		}
	],
	"nodes":[
		{
			"mesh":0,
			"name":"Object_5.005"
		},
		{
			"children":[
				0
			],
			"name":"overcooked_assets.obj.cleaner.materialmerger.gles"
		},
		{
			"children":[
				1
			],
			"name":"Sketchfab_model.004",
			"rotation":[
				-0.70710688829422,
				0,
				0,
				0.7071066498756409
			]
		}
	],
	"materials":[
		{
			"doubleSided":true,
			"name":"Kitchen_Utensils.007",
			"pbrMetallicRoughness":{
				"baseColorTexture":{
					"index":0
				},
				"metallicRoughnessTexture":{
					"index":1
				}
			}
		}
	],
	"meshes":[
		{
			"name":"Object_3.017",
			"primitives":[
				{
					"attributes":{
						"POSITION":0,
						"NORMAL":1,
						"TEXCOORD_0":2
					},
					"indices":3,
					"material":0
				}
			]
		}
	],
	"textures":[
		{
			"sampler":0,
			"source":0
		},
		{
			"sampler":0,
			"source":1
		}
	],
	"images":[
		{
			"mimeType":"image/png",
			"name":"Image_9",
			"uri":"Image_9.png"
		},
		{
			"mimeType":"image/png",
			"name":"Image_10",
			"uri":"Image_10.png"
		}
	],
	"accessors":[
		{
			"bufferView":0,
			"componentType":5126,
			"count":290,
			"max":[
				0.7505870461463928,
				0.7505869269371033,
				0.09956410527229309
			],
			"min":[
				-0.7505864500999451,
				-0.7505860924720764,
				-0.009842958301305771
			],
			"type":"VEC3"
		},
		{
			"bufferView":1,
			"componentType":5126,
			"count":290,
			"type":"VEC3"
		},
		{
			"bufferView":2,
			"componentType":5126,
			"count":290,
			"type":"VEC2"
		},
		{
			"bufferView":3,
			"componentType":5123,
			"count":864,
			"type":"SCALAR"
		}
	],
	"bufferViews":[
		{
			"buffer":0,
			"byteLength":3480,
			"byteOffset":0,
			"target":34962
		},
		{
			"buffer":0,
			"byteLength":3480,
			"byteOffset":3480,
			"target":34962
		},
		{
			"buffer":0,
			"byteLength":2320,
			"byteOffset":6960,
			"target":34962
		},
		{
			"buffer":0,
			"byteLength":1728,
			"byteOffset":9280,
			"target":34963
		}
	],
	"samplers":[
		{
			"magFilter":9729,
			"minFilter":9987
		}
	],
	"buffers":[
		{
			"byteLength":11008,
			"uri":"plate.bin"
		}
	]
}
