{
	"asset":{
		"generator":"Khronos glTF Blender I/O v4.5.49",
		"version":"2.0"
	},
	"scene":0,
	"scenes":[
		{
			"name":"Scene",
			"nodes":[
				4
			]
		}
	],
	"nodes":[
		{
			"mesh":0,
			"name":"Object_4.009"
		},
		{
			"mesh":1,
			"name":"Object_4.010"
		},
		{
			"mesh":2,
			"name":"Object_4.011"
		},
		{
			"mesh":3,
			"name":"Object_4.014"
		},
		{
			"children":[
				0,
				1,
				2,
				3
			],
			"name":"Sketchfab_model",
			"rotation":[
				-0.70710688829422,
				0,
				0,
				0.7071066498756409
			]
		}
	],
	"materials":[
		{
			"doubleSided":true,
			"emissiveFactor":[
				1,
				1,
				1
			],
			"emissiveTexture":{
				"index":0
			},
			"name":"Kitchen_Cabins_Double",
			"normalTexture":{
				"index":1
			},
			"pbrMetallicRoughness":{
				"baseColorTexture":{
					"index":2
				},
				"metallicRoughnessTexture":{
					"index":3
				}
			}
		}
	],
	"meshes":[
		{
			"name":"Object_2.009",
			"primitives":[
				{
					"attributes":{
						"POSITION":0,
						"NORMAL":1,
						"TEXCOORD_0":2
					},
					"indices":3,
					"material":0
				}
			]
		},
		{
			"name":"Object_2.010",
			"primitives":[
				{
					"attributes":{
						"POSITION":4,
						"NORMAL":5,
						"TEXCOORD_0":6
					},
					"indices":7,
					"material":0
				}
			]
		},
		{
			"name":"Object_2.011",
			"primitives":[
				{
					"attributes":{
						"POSITION":8,
						"NORMAL":9,
						"TEXCOORD_0":10
					},
					"indices":11,
					"material":0
				}
			]
		},
		{
			"name":"Object_2.014",
			"primitives":[
				{
					"attributes":{
						"POSITION":12,
						"NORMAL":13,
						"TEXCOORD_0":14
					},
					"indices":15,
					"material":0
				}
			]
		}
	],
	"textures":[
		{
			"sampler":0,
			"source":0
		},
		{
			"sampler":0,
			"source":1
		},
		{
			"sampler":0,
			"source":2
		},
		{
			"sampler":0,
			"source":3
		}
	],
	"images":[
		{
			"mimeType":"image/png",
			"name":"Image_7",
			"uri":"Image_7.png"
		},
		{
			"mimeType":"image/png",
			"name":"Image_8",
			"uri":"Image_8.png"
		},
		{
			"mimeType":"image/png",
			"name":"Image_5",
			"uri":"Image_5.png"
		},
		{
			"mimeType":"image/png",
			"name":"Image_6",
			"uri":"Image_6.png"
		}
	],
	"accessors":[
		{
			"bufferView":0,
			"componentType":5126,
			"count":1119,
			"max":[
				5.9968109130859375,
				5.400993824005127,
				3.5186960697174072
			],
			"min":[
				1.996811032295227,
				3.369079113006592,
				0
			],
			"type":"VEC3"
		},
		{
			"bufferView":1,
			"componentType":5126,
			"count":1119,
			"type":"VEC3"
		},
		{
			"bufferView":2,
			"componentType":5126,
			"count":1119,
			"type":"VEC2"
		},
		{
			"bufferView":3,
			"componentType":5123,
			"count":3042,
			"type":"SCALAR"
		},
		{
			"bufferView":4,
			"componentType":5126,
			"count":464,
			"max":[
				5.9968109130859375,
				5.400993824005127,
				3.5186960697174072
			],
			"min":[
				1.996811032295227,
				3.369079113006592,
				0
			],
			"type":"VEC3"
		},
		{
			"bufferView":5,
			"componentType":5126,
			"count":464,
			"type":"VEC3"
		},
		{
			"bufferView":6,
			"componentType":5126,
			"count":464,
			"type":"VEC2"
		},
		{
			"bufferView":7,
			"componentType":5123,
			"count":930,
			"type":"SCALAR"
		},
		{
			"bufferView":8,
			"componentType":5126,
			"count":83,
			"max":[
				5.9968109130859375,
				5.37892484664917,
				3.326349973678589
			],
			"min":[
				2.2085490226745605,
				3.3815701007843018,
				0
			],
			"type":"VEC3"
		},
		{
			"bufferView":9,
			"componentType":5126,
			"count":83,
			"type":"VEC3"
		},
		{
			"bufferView":10,
			"componentType":5126,
			"count":83,
			"type":"VEC2"
		},
		{
			"bufferView":11,
			"componentType":5123,
			"count":129,
			"type":"SCALAR"
		},
		{
			"bufferView":12,
			"componentType":5126,
			"count":12,
			"max":[
				1.996811032295227,
				5.37892484664917,
				1.0363340377807617
			],
			"min":[
				1.996811032295227,
				3.382200002670288,
				0.014999999664723873
			],
			"type":"VEC3"
		},
		{
			"bufferView":13,
			"componentType":5126,
			"count":12,
			"type":"VEC3"
		},
		{
			"bufferView":14,
			"componentType":5126,
			"count":12,
			"type":"VEC2"
		},
		{
			"bufferView":15,
			"componentType":5123,
			"count":39,
			"type":"SCALAR"
		}
	],
	"bufferViews":[
		{
			"buffer":0,
			"byteLength":13428,
			"byteOffset":0,
			"target":34962
		},
		{
			"buffer":0,
			"byteLength":13428,
			"byteOffset":13428,
			"target":34962
		},
		{
			"buffer":0,
			"byteLength":8952,
			"byteOffset":26856,
			"target":34962
		},
		{
			"buffer":0,
			"byteLength":6084,
			"byteOffset":35808,
			"target":34963
		},
		{
			"buffer":0,
			"byteLength":5568,
			"byteOffset":41892,
			"target":34962
		},
		{
			"buffer":0,
			"byteLength":5568,
			"byteOffset":47460,
			"target":34962
		},
		{
			"buffer":0,
			"byteLength":3712,
			"byteOffset":53028,
			"target":34962
		},
		{
			"buffer":0,
			"byteLength":1860,
			"byteOffset":56740,
			"target":34963
		},
		{
			"buffer":0,
			"byteLength":996,
			"byteOffset":58600,
			"target":34962
		},
		{
			"buffer":0,
			"byteLength":996,
			"byteOffset":59596,
			"target":34962
		},
		{
			"buffer":0,
			"byteLength":664,
			"byteOffset":60592,
			"target":34962
		},
		{
			"buffer":0,
			"byteLength":258,
			"byteOffset":61256,
			"target":34963
		},
		{
			"buffer":0,
			"byteLength":144,
			"byteOffset":61516,
			"target":34962
		},
		{
			"buffer":0,
			"byteLength":144,
			"byteOffset":61660,
			"target":34962
		},
		{
			"buffer":0,
			"byteLength":96,
			"byteOffset":61804,
			"target":34962
		},
		{
			"buffer":0,
			"byteLength":78,
			"byteOffset":61900,
			"target":34963
		}
	],
	"samplers":[
		{
			"magFilter":9729,
			"minFilter":9987
		}
	],
	"buffers":[
		{
			"byteLength":61980,
			"uri":"serveDishes.bin"
		}
	]
}
