{
	"asset":{
		"generator":"Khronos glTF Blender I/O v4.5.49",
		"version":"2.0"
	},
	"scene":0,
	"scenes":[
		{
			"name":"Scene",
			"nodes":[
				2
			]
		}
	],
	"nodes":[
		{
			"mesh":0,
			"name":"3.001"
		},
		{
			"mesh":1,
			"name":"3.003"
		},
		{
			"children":[
				0,
				1
			],
			"name":"Sketchfab_model.001",
			"rotation":[
				-0.70710688829422,
				0,
				0,
				0.7071066498756409
			]
		}
	],
	"materials":[
		{
			"doubleSided":true,
			"name":"Kitchen_Cabins.003.1002",
			"pbrMetallicRoughness":{
				"baseColorTexture":{
					"index":0
				},
				"metallicRoughnessTexture":{
					"index":1
				}
			}
		},
		{
			"doubleSided":true,
			"name":"Kitchen_Cabins.003.1001",
			"pbrMetallicRoughness":{
				"baseColorTexture":{
					"index":2
				},
				"metallicRoughnessTexture":{
					"index":1
				}
			}
		},
		{
			"doubleSided":true,
			"name":"Kitchen_Cabins.003.1002",
			"pbrMetallicRoughness":{
				"baseColorTexture":{
					"index":0
				},
				"metallicRoughnessTexture":{
					"index":1
				}
			}
		}
	],
	"meshes":[
		{
			"name":"Object_1.006",
			"primitives":[
				{
					"attributes":{
						"POSITION":0,
						"NORMAL":1,
						"TEXCOORD_0":2
					},
					"indices":3,
					"material":0
				}
			]
		},
		{
			"name":"Object_1.007",
			"primitives":[
				{
					"attributes":{
						"POSITION":4,
						"NORMAL":5,
						"TEXCOORD_0":6
					},
					"indices":7,
					"material":1
				},
				{
					"attributes":{
						"POSITION":8,
						"NORMAL":9,
						"TEXCOORD_0":10
					},
					"indices":3,
					"material":2
				}
			]
		}
	],
	"textures":[
		{
			"sampler":0,
			"source":0
		},
		{
			"sampler":0,
			"source":1
		},
		{
			"sampler":0,
			"source":2
		}
	],
	"images":[
		{
			"mimeType":"image/png",
			"name":"foodTable.1002",
			"uri":"foodTable.1002.png"
		},
		{
			"mimeType":"image/png",
			"name":"Image_4",
			"uri":"Image_4.png"
		},
		{
			"mimeType":"image/png",
			"name":"foodTable.1001",
			"uri":"foodTable.1001.png"
		}
	],
	"accessors":[
		{
			"bufferView":0,
			"componentType":5126,
			"count":4,
			"max":[
				0.7520689964294434,
				0.7520699501037598,
				0.41434594988822937
			],
			"min":[
				-0.7520699501037598,
				-0.7520689964294434,
				0.41434594988822937
			],
			"type":"VEC3"
		},
		{
			"bufferView":1,
			"componentType":5126,
			"count":4,
			"type":"VEC3"
		},
		{
			"bufferView":2,
			"componentType":5126,
			"count":4,
			"type":"VEC2"
		},
		{
			"bufferView":3,
			"componentType":5123,
			"count":6,
			"type":"SCALAR"
		},
		{
			"bufferView":4,
			"componentType":5126,
			"count":450,
			"max":[
				1,
				1,
				0.45302698016166687
			],
			"min":[
				-1,
				-1,
				-0.45302698016166687
			],
			"type":"VEC3"
		},
		{
			"bufferView":5,
			"componentType":5126,
			"count":450,
			"type":"VEC3"
		},
		{
			"bufferView":6,
			"componentType":5126,
			"count":450,
			"type":"VEC2"
		},
		{
			"bufferView":7,
			"componentType":5123,
			"count":684,
			"type":"SCALAR"
		},
		{
			"bufferView":8,
			"componentType":5126,
			"count":4,
			"max":[
				0.9837750196456909,
				0.9837758541107178,
				0.3531079590320587
			],
			"min":[
				-0.9837749600410461,
				-0.983773946762085,
				0.3531079590320587
			],
			"type":"VEC3"
		},
		{
			"bufferView":9,
			"componentType":5126,
			"count":4,
			"type":"VEC3"
		},
		{
			"bufferView":10,
			"componentType":5126,
			"count":4,
			"type":"VEC2"
		}
	],
	"bufferViews":[
		{
			"buffer":0,
			"byteLength":48,
			"byteOffset":0,
			"target":34962
		},
		{
			"buffer":0,
			"byteLength":48,
			"byteOffset":48,
			"target":34962
		},
		{
			"buffer":0,
			"byteLength":32,
			"byteOffset":96,
			"target":34962
		},
		{
			"buffer":0,
			"byteLength":12,
			"byteOffset":128,
			"target":34963
		},
		{
			"buffer":0,
			"byteLength":5400,
			"byteOffset":140,
			"target":34962
		},
		{
			"buffer":0,
			"byteLength":5400,
			"byteOffset":5540,
			"target":34962
		},
		{
			"buffer":0,
			"byteLength":3600,
			"byteOffset":10940,
			"target":34962
		},
		{
			"buffer":0,
			"byteLength":1368,
			"byteOffset":14540,
			"target":34963
		},
		{
			"buffer":0,
			"byteLength":48,
			"byteOffset":15908,
			"target":34962
		},
		{
			"buffer":0,
			"byteLength":48,
			"byteOffset":15956,
			"target":34962
		},
		{
			"buffer":0,
			"byteLength":32,
			"byteOffset":16004,
			"target":34962
		}
	],
	"samplers":[
		{
			"magFilter":9729,
			"minFilter":9987
		}
	],
	"buffers":[
		{
			"byteLength":16036,
			"uri":"tomatoTable.bin"
		}
	]
}
