{
	"asset":{
		"generator":"Khronos glTF Blender I/O v4.5.49",
		"version":"2.0"
	},
	"scene":0,
	"scenes":[
		{
			"name":"Scene",
			"nodes":[
				2
			]
		}
	],
	"nodes":[
		{
			"mesh":0,
			"name":"2"
		},
		{
			"mesh":1,
			"name":"2.001"
		},
		{
			"children":[
				0,
				1
			],
			"name":"Sketchfab_model",
			"rotation":[
				-0.70710688829422,
				0,
				0,
				0.7071066498756409
			]
		}
	],
	"materials":[
		{
			"doubleSided":true,
			"name":"Kitchen_Cabins.008",
			"pbrMetallicRoughness":{
				"baseColorTexture":{
					"index":0
				},
				"metallicRoughnessTexture":{
					"index":1
				}
			}
		}
	],
	"meshes":[
		{
			"name":"Object_1.028",
			"primitives":[
				{
					"attributes":{
						"POSITION":0,
						"NORMAL":1,
						"TEXCOORD_0":2
					},
					"indices":3,
					"material":0
				}
			]
		},
		{
			"name":"Object_1.029",
			"primitives":[
				{
					"attributes":{
						"POSITION":4,
						"NORMAL":5,
						"TEXCOORD_0":6
					},
					"indices":7,
					"material":0
				}
			]
		}
	],
	"textures":[
		{
			"sampler":0,
			"source":0
		},
		{
			"sampler":0,
			"source":1
		}
	],
	"images":[
		{
			"mimeType":"image/png",
			"name":"Image_3",
			"uri":"Image_3.png"
		},
		{
			"mimeType":"image/png",
			"name":"Image_4",
			"uri":"Image_4.png"
		}
	],
	"accessors":[
		{
			"bufferView":0,
			"componentType":5126,
			"count":510,
			"max":[
				-3.0002059936523438,
				1.3997750282287598,
				0.8956549763679504
			],
			"min":[
				-5.000205993652344,
				-0.6002249717712402,
				0
			],
			"type":"VEC3"
		},
		{
			"bufferView":1,
			"componentType":5126,
			"count":510,
			"type":"VEC3"
		},
		{
			"bufferView":2,
			"componentType":5126,
			"count":510,
			"type":"VEC2"
		},
		{
			"bufferView":3,
			"componentType":5123,
			"count":1188,
			"type":"SCALAR"
		},
		{
			"bufferView":4,
			"componentType":5126,
			"count":4,
			"max":[
				-4.6017560958862305,
				1.0163249969482422,
				0.8530250191688538
			],
			"min":[
				-4.616755962371826,
				1.001325011253357,
				0.40558600425720215
			],
			"type":"VEC3"
		},
		{
			"bufferView":5,
			"componentType":5126,
			"count":4,
			"type":"VEC3"
		},
		{
			"bufferView":6,
			"componentType":5126,
			"count":4,
			"type":"VEC2"
		},
		{
			"bufferView":7,
			"componentType":5123,
			"count":6,
			"type":"SCALAR"
		}
	],
	"bufferViews":[
		{
			"buffer":0,
			"byteLength":6120,
			"byteOffset":0,
			"target":34962
		},
		{
			"buffer":0,
			"byteLength":6120,
			"byteOffset":6120,
			"target":34962
		},
		{
			"buffer":0,
			"byteLength":4080,
			"byteOffset":12240,
			"target":34962
		},
		{
			"buffer":0,
			"byteLength":2376,
			"byteOffset":16320,
			"target":34963
		},
		{
			"buffer":0,
			"byteLength":48,
			"byteOffset":18696,
			"target":34962
		},
		{
			"buffer":0,
			"byteLength":48,
			"byteOffset":18744,
			"target":34962
		},
		{
			"buffer":0,
			"byteLength":32,
			"byteOffset":18792,
			"target":34962
		},
		{
			"buffer":0,
			"byteLength":12,
			"byteOffset":18824,
			"target":34963
		}
	],
	"samplers":[
		{
			"magFilter":9729,
			"minFilter":9987
		}
	],
	"buffers":[
		{
			"byteLength":18836,
			"uri":"trash.bin"
		}
	]
}
