{
	"asset":{
		"generator":"Khronos glTF Blender I/O v4.5.49",
		"version":"2.0"
	},
	"scene":0,
	"scenes":[
		{
			"name":"Scene",
			"nodes":[
				0
			]
		}
	],
	"nodes":[
		{
			"mesh":0,
			"name":"2",
			"rotation":[
				-0.70710688829422,
				0,
				0,
				0.7071066498756409
			],
			"translation":[
				-4.5299530029296875e-06,
				0.0429597869515419,
				-0.06130696088075638
			]
		}
	],
	"materials":[
		{
			"doubleSided":true,
			"name":"Kitchen_Cabins.010",
			"pbrMetallicRoughness":{
				"baseColorTexture":{
					"index":0
				},
				"metallicRoughnessTexture":{
					"index":1
				}
			}
		}
	],
	"meshes":[
		{
			"name":"Object_1.003",
			"primitives":[
				{
					"attributes":{
						"POSITION":0,
						"NORMAL":1,
						"TEXCOORD_0":2
					},
					"indices":3,
					"material":0
				}
			]
		}
	],
	"textures":[
		{
			"sampler":0,
			"source":0
		},
		{
			"sampler":0,
			"source":1
		}
	],
	"images":[
		{
			"mimeType":"image/png",
			"name":"Image_3",
			"uri":"Image_3.png"
		},
		{
			"mimeType":"image/png",
			"name":"Image_4",
			"uri":"Image_4.png"
		}
	],
	"accessors":[
		{
			"bufferView":0,
			"componentType":5126,
			"count":514,
			"max":[
				1.0000042915344238,
				0.9999998807907104,
				0.3526952266693115
			],
			"min":[
				-0.9999957084655762,
				-1.0000001192092896,
				-0.5429597496986389
			],
			"type":"VEC3"
		},
		{
			"bufferView":1,
			"componentType":5126,
			"count":514,
			"type":"VEC3"
		},
		{
			"bufferView":2,
			"componentType":5126,
			"count":514,
			"type":"VEC2"
		},
		{
			"bufferView":3,
			"componentType":5123,
			"count":1194,
			"type":"SCALAR"
		}
	],
	"bufferViews":[
		{
			"buffer":0,
			"byteLength":6168,
			"byteOffset":0,
			"target":34962
		},
		{
			"buffer":0,
			"byteLength":6168,
			"byteOffset":6168,
			"target":34962
		},
		{
			"buffer":0,
			"byteLength":4112,
			"byteOffset":12336,
			"target":34962
		},
		{
			"buffer":0,
			"byteLength":2388,
			"byteOffset":16448,
			"target":34963
		}
	],
	"samplers":[
		{
			"magFilter":9729,
			"minFilter":9987
		}
	],
	"buffers":[
		{
			"byteLength":18836,
			"uri":"trash.bin"
		}
	]
}
