{
	"asset":{
		"generator":"Khronos glTF Blender I/O v4.5.49",
		"version":"2.0"
	},
	"scene":0,
	"scenes":[
		{
			"name":"Scene",
			"nodes":[
				8
			]
		}
	],
	"nodes":[
		{
			"mesh":0,
			"name":"Object_4.001"
		},
		{
			"mesh":1,
			"name":"Object_4.002"
		},
		{
			"mesh":2,
			"name":"Object_4.003"
		},
		{
			"mesh":3,
			"name":"Object_4.004"
		},
		{
			"mesh":4,
			"name":"Object_4.005"
		},
		{
			"mesh":5,
			"name":"Object_4.006"
		},
		{
			"mesh":6,
			"name":"Object_4.007"
		},
		{
			"mesh":7,
			"name":"Object_4.008"
		},
		{
			"children":[
				0,
				1,
				2,
				3,
				4,
				5,
				6,
				7
			],
			"name":"Sketchfab_model",
			"rotation":[
				-0.70710688829422,
				0,
				0,
				0.7071066498756409
			]
		}
	],
	"materials":[
		{
			"doubleSided":true,
			"emissiveFactor":[
				1,
				1,
				1
			],
			"emissiveTexture":{
				"index":0
			},
			"name":"Kitchen_Cabins_Double.002",
			"normalTexture":{
				"index":1
			},
			"pbrMetallicRoughness":{
				"baseColorTexture":{
					"index":2
				},
				"metallicRoughnessTexture":{
					"index":3
				}
			}
		}
	],
	"meshes":[
		{
			"name":"Object_2.012",
			"primitives":[
				{
					"attributes":{
						"POSITION":0,
						"NORMAL":1,
						"TEXCOORD_0":2
					},
					"indices":3,
					"material":0
				}
			]
		},
		{
			"name":"Object_2.013",
			"primitives":[
				{
					"attributes":{
						"POSITION":4,
						"NORMAL":5,
						"TEXCOORD_0":6
					},
					"indices":7,
					"material":0
				}
			]
		},
		{
			"name":"Object_2.015",
			"primitives":[
				{
					"attributes":{
						"POSITION":8,
						"NORMAL":9,
						"TEXCOORD_0":10
					},
					"indices":11,
					"material":0
				}
			]
		},
		{
			"name":"Object_2.016",
			"primitives":[
				{
					"attributes":{
						"POSITION":12,
						"NORMAL":13,
						"TEXCOORD_0":14
					},
					"indices":15,
					"material":0
				}
			]
		},
		{
			"name":"Object_2.017",
			"primitives":[
				{
					"attributes":{
						"POSITION":16,
						"NORMAL":17,
						"TEXCOORD_0":18
					},
					"indices":19,
					"material":0
				}
			]
		},
		{
			"name":"Object_2.018",
			"primitives":[
				{
					"attributes":{
						"POSITION":20,
						"NORMAL":21,
						"TEXCOORD_0":22
					},
					"indices":23,
					"material":0
				}
			]
		},
		{
			"name":"Object_2.019",
			"primitives":[
				{
					"attributes":{
						"POSITION":24,
						"NORMAL":25,
						"TEXCOORD_0":26
					},
					"indices":27,
					"material":0
				}
			]
		},
		{
			"name":"Object_2.020",
			"primitives":[
				{
					"attributes":{
						"POSITION":28,
						"NORMAL":29,
						"TEXCOORD_0":30
					},
					"indices":31,
					"material":0
				}
			]
		}
	],
	"textures":[
		{
			"sampler":0,
			"source":0
		},
		{
			"sampler":0,
			"source":1
		},
		{
			"sampler":0,
			"source":2
		},
		{
			"sampler":0,
			"source":3
		}
	],
	"images":[
		{
			"mimeType":"image/png",
			"name":"Image_7",
			"uri":"Image_7.png"
		},
		{
			"mimeType":"image/png",
			"name":"Image_8",
			"uri":"Image_8.png"
		},
		{
			"mimeType":"image/png",
			"name":"Image_5",
			"uri":"Image_5.png"
		},
		{
			"mimeType":"image/png",
			"name":"Image_6",
			"uri":"Image_6.png"
		}
	],
	"accessors":[
		{
			"bufferView":0,
			"componentType":5126,
			"count":942,
			"max":[
				-1.9991810321807861,
				5.400231838226318,
				2.2977490425109863
			],
			"min":[
				-5.998939037322998,
				3.277859926223755,
				0
			],
			"type":"VEC3"
		},
		{
			"bufferView":1,
			"componentType":5126,
			"count":942,
			"type":"VEC3"
		},
		{
			"bufferView":2,
			"componentType":5126,
			"count":942,
			"type":"VEC2"
		},
		{
			"bufferView":3,
			"componentType":5123,
			"count":1983,
			"type":"SCALAR"
		},
		{
			"bufferView":4,
			"componentType":5126,
			"count":225,
			"max":[
				-1.9991810321807861,
				5.350605010986328,
				2.2977490425109863
			],
			"min":[
				-5.949313163757324,
				3.277859926223755,
				0
			],
			"type":"VEC3"
		},
		{
			"bufferView":5,
			"componentType":5126,
			"count":225,
			"type":"VEC3"
		},
		{
			"bufferView":6,
			"componentType":5126,
			"count":225,
			"type":"VEC2"
		},
		{
			"bufferView":7,
			"componentType":5123,
			"count":351,
			"type":"SCALAR"
		},
		{
			"bufferView":8,
			"componentType":5126,
			"count":21,
			"max":[
				-2.154439926147461,
				5.004226207733154,
				2.1368019580841064
			],
			"min":[
				-5.828680992126465,
				3.3274779319763184,
				0.5300909876823425
			],
			"type":"VEC3"
		},
		{
			"bufferView":9,
			"componentType":5126,
			"count":21,
			"type":"VEC3"
		},
		{
			"bufferView":10,
			"componentType":5126,
			"count":21,
			"type":"VEC2"
		},
		{
			"bufferView":11,
			"componentType":5123,
			"count":21,
			"type":"SCALAR"
		},
		{
			"bufferView":12,
			"componentType":5126,
			"count":123,
			"max":[
				-1.9991810321807861,
				5.400231838226318,
				1.8954529762268066
			],
			"min":[
				-5.949313163757324,
				3.2878599166870117,
				0
			],
			"type":"VEC3"
		},
		{
			"bufferView":13,
			"componentType":5126,
			"count":123,
			"type":"VEC3"
		},
		{
			"bufferView":14,
			"componentType":5126,
			"count":123,
			"type":"VEC2"
		},
		{
			"bufferView":15,
			"componentType":5123,
			"count":189,
			"type":"SCALAR"
		},
		{
			"bufferView":16,
			"componentType":5126,
			"count":52,
			"max":[
				-3.791546106338501,
				3.409907102584839,
				0.5805580019950867
			],
			"min":[
				-4.206573963165283,
				3.2878599166870117,
				0.14113500714302063
			],
			"type":"VEC3"
		},
		{
			"bufferView":17,
			"componentType":5126,
			"count":52,
			"type":"VEC3"
		},
		{
			"bufferView":18,
			"componentType":5126,
			"count":52,
			"type":"VEC2"
		},
		{
			"bufferView":19,
			"componentType":5123,
			"count":72,
			"type":"SCALAR"
		},
		{
			"bufferView":20,
			"componentType":5126,
			"count":29,
			"max":[
				-3.6490280628204346,
				5.232135772705078,
				1.0624430179595947
			],
			"min":[
				-4.206573963165283,
				3.2878599166870117,
				0.14113500714302063
			],
			"type":"VEC3"
		},
		{
			"bufferView":21,
			"componentType":5126,
			"count":29,
			"type":"VEC3"
		},
		{
			"bufferView":22,
			"componentType":5126,
			"count":29,
			"type":"VEC2"
		},
		{
			"bufferView":23,
			"componentType":5123,
			"count":33,
			"type":"SCALAR"
		},
		{
			"bufferView":24,
			"componentType":5126,
			"count":15,
			"max":[
				-3.791546106338501,
				3.3289809226989746,
				0.5805580019950867
			],
			"min":[
				-4.206573963165283,
				3.277859926223755,
				0.14113500714302063
			],
			"type":"VEC3"
		},
		{
			"bufferView":25,
			"componentType":5126,
			"count":15,
			"type":"VEC3"
		},
		{
			"bufferView":26,
			"componentType":5126,
			"count":15,
			"type":"VEC2"
		},
		{
			"bufferView":27,
			"componentType":5123,
			"count":15,
			"type":"SCALAR"
		},
		{
			"bufferView":28,
			"componentType":5126,
			"count":18,
			"max":[
				-3.791546106338501,
				3.409907102584839,
				0.5805580019950867
			],
			"min":[
				-3.887070894241333,
				3.2878599166870117,
				0.14113500714302063
			],
			"type":"VEC3"
		},
		{
			"bufferView":29,
			"componentType":5126,
			"count":18,
			"type":"VEC3"
		},
		{
			"bufferView":30,
			"componentType":5126,
			"count":18,
			"type":"VEC2"
		},
		{
			"bufferView":31,
			"componentType":5123,
			"count":24,
			"type":"SCALAR"
		}
	],
	"bufferViews":[
		{
			"buffer":0,
			"byteLength":11304,
			"byteOffset":0,
			"target":34962
		},
		{
			"buffer":0,
			"byteLength":11304,
			"byteOffset":11304,
			"target":34962
		},
		{
			"buffer":0,
			"byteLength":7536,
			"byteOffset":22608,
			"target":34962
		},
		{
			"buffer":0,
			"byteLength":3966,
			"byteOffset":30144,
			"target":34963
		},
		{
			"buffer":0,
			"byteLength":2700,
			"byteOffset":34112,
			"target":34962
		},
		{
			"buffer":0,
			"byteLength":2700,
			"byteOffset":36812,
			"target":34962
		},
		{
			"buffer":0,
			"byteLength":1800,
			"byteOffset":39512,
			"target":34962
		},
		{
			"buffer":0,
			"byteLength":702,
			"byteOffset":41312,
			"target":34963
		},
		{
			"buffer":0,
			"byteLength":252,
			"byteOffset":42016,
			"target":34962
		},
		{
			"buffer":0,
			"byteLength":252,
			"byteOffset":42268,
			"target":34962
		},
		{
			"buffer":0,
			"byteLength":168,
			"byteOffset":42520,
			"target":34962
		},
		{
			"buffer":0,
			"byteLength":42,
			"byteOffset":42688,
			"target":34963
		},
		{
			"buffer":0,
			"byteLength":1476,
			"byteOffset":42732,
			"target":34962
		},
		{
			"buffer":0,
			"byteLength":1476,
			"byteOffset":44208,
			"target":34962
		},
		{
			"buffer":0,
			"byteLength":984,
			"byteOffset":45684,
			"target":34962
		},
		{
			"buffer":0,
			"byteLength":378,
			"byteOffset":46668,
			"target":34963
		},
		{
			"buffer":0,
			"byteLength":624,
			"byteOffset":47048,
			"target":34962
		},
		{
			"buffer":0,
			"byteLength":624,
			"byteOffset":47672,
			"target":34962
		},
		{
			"buffer":0,
			"byteLength":416,
			"byteOffset":48296,
			"target":34962
		},
		{
			"buffer":0,
			"byteLength":144,
			"byteOffset":48712,
			"target":34963
		},
		{
			"buffer":0,
			"byteLength":348,
			"byteOffset":48856,
			"target":34962
		},
		{
			"buffer":0,
			"byteLength":348,
			"byteOffset":49204,
			"target":34962
		},
		{
			"buffer":0,
			"byteLength":232,
			"byteOffset":49552,
			"target":34962
		},
		{
			"buffer":0,
			"byteLength":66,
			"byteOffset":49784,
			"target":34963
		},
		{
			"buffer":0,
			"byteLength":180,
			"byteOffset":49852,
			"target":34962
		},
		{
			"buffer":0,
			"byteLength":180,
			"byteOffset":50032,
			"target":34962
		},
		{
			"buffer":0,
			"byteLength":120,
			"byteOffset":50212,
			"target":34962
		},
		{
			"buffer":0,
			"byteLength":30,
			"byteOffset":50332,
			"target":34963
		},
		{
			"buffer":0,
			"byteLength":216,
			"byteOffset":50364,
			"target":34962
		},
		{
			"buffer":0,
			"byteLength":216,
			"byteOffset":50580,
			"target":34962
		},
		{
			"buffer":0,
			"byteLength":144,
			"byteOffset":50796,
			"target":34962
		},
		{
			"buffer":0,
			"byteLength":48,
			"byteOffset":50940,
			"target":34963
		}
	],
	"samplers":[
		{
			"magFilter":9729,
			"minFilter":9987
		}
	],
	"buffers":[
		{
			"byteLength":50988,
			"uri":"washSink.bin"
		}
	]
}
