{
	"asset":{
		"generator":"Khronos glTF Blender I/O v4.5.49",
		"version":"2.0"
	},
	"extensionsUsed":[
		"KHR_materials_specular",
		"KHR_materials_ior"
	],
	"scene":0,
	"scenes":[
		{
			"name":"Scene",
			"nodes":[
				5
			]
		}
	],
	"nodes":[
		{
			"mesh":0,
			"name":"dirtyPlate1",
			"rotation":[
				-0.0706627368927002,
				0.24156136810779572,
				0.07033960521221161,
				0.9652498364448547
			],
			"translation":[
				-0.9040320515632629,
				0.0939757227897644,
				-0.10661674290895462
			]
		},
		{
			"mesh":1,
			"name":"dirtyPlate2",
			"rotation":[
				-0.08870485424995422,
				-0.7628710865974426,
				-0.6367062926292419,
				0.06902384012937546
			],
			"scale":[
				2.71575665473938,
				2.7157559394836426,
				2.7157561779022217
			],
			"translation":[
				-0.8193950653076172,
				-0.0831381306052208,
				0.20674124360084534
			]
		},
		{
			"mesh":2,
			"name":"dirtyPlate3",
			"rotation":[
				-0.20937485992908478,
				0.521374523639679,
				0.22077766060829163,
				0.797237753868103
			],
			"translation":[
				-1.2231543064117432,
				0.02234126627445221,
				-0.05692918598651886
			]
		},
		{
			"children":[
				0,
				1,
				2
			],
			"name":"dirtyPlate",
			"rotation":[
				0.70710688829422,
				0,
				0,
				0.7071066498756409
			],
			"translation":[
				0.022120945155620575,
				0.05567863583564758,
				-0.4701155424118042
			]
		},
		{
			"mesh":3,
			"name":"water"
		},
		{
			"children":[
				3,
				4
			],
			"mesh":4,
			"name":"washSink",
			"rotation":[
				-0.70710688829422,
				0,
				0,
				0.7071066498756409
			],
			"translation":[
				-0.022120952606201172,
				0.4701155424118042,
				0.05567849054932594
			]
		}
	],
	"materials":[
		{
			"doubleSided":true,
			"extensions":{
				"KHR_materials_specular":{
					"specularFactor":0.4000000059604645
				},
				"KHR_materials_ior":{
					"ior":1
				}
			},
			"name":"\u6750\u8d28",
			"pbrMetallicRoughness":{
				"baseColorTexture":{
					"index":0
				},
				"metallicFactor":0,
				"roughnessFactor":0.8671577572822571
			}
		},
		{
			"doubleSided":true,
			"extensions":{
				"KHR_materials_specular":{
					"specularFactor":0.4000000059604645
				},
				"KHR_materials_ior":{
					"ior":1
				}
			},
			"name":"DirtyPlate.001",
			"pbrMetallicRoughness":{
				"baseColorTexture":{
					"index":1
				},
				"metallicFactor":0,
				"roughnessFactor":0.8671577572822571
			}
		},
		{
			"doubleSided":true,
			"emissiveFactor":[
				1,
				1,
				1
			],
			"emissiveTexture":{
				"index":2
			},
			"name":"Kitchen_Cabins_Double.001",
			"normalTexture":{
				"index":3
			},
			"pbrMetallicRoughness":{
				"baseColorTexture":{
					"index":4
				},
				"metallicRoughnessTexture":{
					"index":5
				}
			}
		}
	],
	"meshes":[
		{
			"name":"Object_3.001",
			"primitives":[
				{
					"attributes":{
						"POSITION":0,
						"NORMAL":1,
						"TEXCOORD_0":2
					},
					"indices":3,
					"material":0
				}
			]
		},
		{
			"name":"DirtyPlate_ncl1_2.001",
			"primitives":[
				{
					"attributes":{
						"POSITION":4,
						"NORMAL":5,
						"TEXCOORD_0":6
					},
					"indices":7,
					"material":1
				}
			]
		},
		{
			"name":"Object_3.006",
			"primitives":[
				{
					"attributes":{
						"POSITION":8,
						"NORMAL":9,
						"TEXCOORD_0":10
					},
					"indices":11,
					"material":0
				}
			]
		},
		{
			"name":"Object_2.002",
			"primitives":[
				{
					"attributes":{
						"POSITION":12,
						"NORMAL":13,
						"TEXCOORD_0":14
					},
					"indices":15,
					"material":2
				}
			]
		},
		{
			"name":"Object_2.001",
			"primitives":[
				{
					"attributes":{
						"POSITION":16,
						"NORMAL":17,
						"TEXCOORD_0":18
					},
					"indices":19,
					"material":2
				}
			]
		}
	],
	"textures":[
		{
			"sampler":0,
			"source":0
		},
		{
			"sampler":0,
			"source":0
		},
		{
			"sampler":0,
			"source":1
		},
		{
			"sampler":0,
			"source":2
		},
		{
			"sampler":0,
			"source":3
		},
		{
			"sampler":0,
			"source":4
		}
	],
	"images":[
		{
			"mimeType":"image/png",
			"name":"DirtyPlate",
			"uri":"DirtyPlate.png"
		},
		{
			"mimeType":"image/png",
			"name":"Image_7",
			"uri":"Image_7.png"
		},
		{
			"mimeType":"image/png",
			"name":"Image_8",
			"uri":"Image_8.png"
		},
		{
			"mimeType":"image/png",
			"name":"Image_5",
			"uri":"Image_5.png"
		},
		{
			"mimeType":"image/png",
			"name":"Image_6",
			"uri":"Image_6.png"
		}
	],
	"accessors":[
		{
			"bufferView":0,
			"componentType":5126,
			"count":151,
			"max":[
				0.7505870461463928,
				0.7505868673324585,
				0.09956410527229309
			],
			"min":[
				-0.7505864500999451,
				-5.0255096084583784e-08,
				-0.009842957369983196
			],
			"type":"VEC3"
		},
		{
			"bufferView":1,
			"componentType":5126,
			"count":151,
			"type":"VEC3"
		},
		{
			"bufferView":2,
			"componentType":5126,
			"count":151,
			"type":"VEC2"
		},
		{
			"bufferView":3,
			"componentType":5123,
			"count":411,
			"type":"SCALAR"
		},
		{
			"bufferView":4,
			"componentType":5126,
			"count":162,
			"max":[
				0.27577900886535645,
				0.09179417788982391,
				0.27559947967529297
			],
			"min":[
				-0.26319795846939087,
				-0.09283582121133804,
				0.007415473461151123
			],
			"type":"VEC3"
		},
		{
			"bufferView":5,
			"componentType":5126,
			"count":162,
			"type":"VEC3"
		},
		{
			"bufferView":6,
			"componentType":5126,
			"count":162,
			"type":"VEC2"
		},
		{
			"bufferView":7,
			"componentType":5123,
			"count":675,
			"type":"SCALAR"
		},
		{
			"bufferView":8,
			"componentType":5126,
			"count":145,
			"max":[
				0.7505870461463928,
				0.7505868673324585,
				0.09956410527229309
			],
			"min":[
				-0.7250108122825623,
				-0.19426611065864563,
				-0.009842957369983196
			],
			"type":"VEC3"
		},
		{
			"bufferView":9,
			"componentType":5126,
			"count":145,
			"type":"VEC3"
		},
		{
			"bufferView":10,
			"componentType":5126,
			"count":145,
			"type":"VEC2"
		},
		{
			"bufferView":11,
			"componentType":5123,
			"count":393,
			"type":"SCALAR"
		},
		{
			"bufferView":12,
			"componentType":5126,
			"count":20,
			"max":[
				-0.1453685760498047,
				0.758026123046875,
				-0.22373640537261963
			],
			"min":[
				-1.760643482208252,
				-0.524054765701294,
				-0.22373640537261963
			],
			"type":"VEC3"
		},
		{
			"bufferView":13,
			"componentType":5126,
			"count":20,
			"type":"VEC3"
		},
		{
			"bufferView":14,
			"componentType":5126,
			"count":20,
			"type":"VEC2"
		},
		{
			"bufferView":15,
			"componentType":5123,
			"count":54,
			"type":"SCALAR"
		},
		{
			"bufferView":16,
			"componentType":5126,
			"count":1409,
			"max":[
				2.0219995975494385,
				1.1168651580810547,
				1.3276336193084717
			],
			"min":[
				-1.9777584075927734,
				-1.005506992340088,
				-0.9701154232025146
			],
			"type":"VEC3"
		},
		{
			"bufferView":17,
			"componentType":5126,
			"count":1409,
			"type":"VEC3"
		},
		{
			"bufferView":18,
			"componentType":5126,
			"count":1409,
			"type":"VEC2"
		},
		{
			"bufferView":19,
			"componentType":5123,
			"count":2634,
			"type":"SCALAR"
		}
	],
	"bufferViews":[
		{
			"buffer":0,
			"byteLength":1812,
			"byteOffset":0,
			"target":34962
		},
		{
			"buffer":0,
			"byteLength":1812,
			"byteOffset":1812,
			"target":34962
		},
		{
			"buffer":0,
			"byteLength":1208,
			"byteOffset":3624,
			"target":34962
		},
		{
			"buffer":0,
			"byteLength":822,
			"byteOffset":4832,
			"target":34963
		},
		{
			"buffer":0,
			"byteLength":1944,
			"byteOffset":5656,
			"target":34962
		},
		{
			"buffer":0,
			"byteLength":1944,
			"byteOffset":7600,
			"target":34962
		},
		{
			"buffer":0,
			"byteLength":1296,
			"byteOffset":9544,
			"target":34962
		},
		{
			"buffer":0,
			"byteLength":1350,
			"byteOffset":10840,
			"target":34963
		},
		{
			"buffer":0,
			"byteLength":1740,
			"byteOffset":12192,
			"target":34962
		},
		{
			"buffer":0,
			"byteLength":1740,
			"byteOffset":13932,
			"target":34962
		},
		{
			"buffer":0,
			"byteLength":1160,
			"byteOffset":15672,
			"target":34962
		},
		{
			"buffer":0,
			"byteLength":786,
			"byteOffset":16832,
			"target":34963
		},
		{
			"buffer":0,
			"byteLength":240,
			"byteOffset":17620,
			"target":34962
		},
		{
			"buffer":0,
			"byteLength":240,
			"byteOffset":17860,
			"target":34962
		},
		{
			"buffer":0,
			"byteLength":160,
			"byteOffset":18100,
			"target":34962
		},
		{
			"buffer":0,
			"byteLength":108,
			"byteOffset":18260,
			"target":34963
		},
		{
			"buffer":0,
			"byteLength":16908,
			"byteOffset":18368,
			"target":34962
		},
		{
			"buffer":0,
			"byteLength":16908,
			"byteOffset":35276,
			"target":34962
		},
		{
			"buffer":0,
			"byteLength":11272,
			"byteOffset":52184,
			"target":34962
		},
		{
			"buffer":0,
			"byteLength":5268,
			"byteOffset":63456,
			"target":34963
		}
	],
	"samplers":[
		{
			"magFilter":9729,
			"minFilter":9987
		}
	],
	"buffers":[
		{
			"byteLength":68724,
			"uri":"washSink.bin"
		}
	]
}
