{
	"asset":{
		"generator":"Khronos glTF Blender I/O v4.5.49",
		"version":"2.0"
	},
	"scene":0,
	"scenes":[
		{
			"name":"Scene",
			"nodes":[
				0,
				1
			]
		}
	],
	"nodes":[
		{
			"mesh":0,
			"name":"Object_4.002",
			"rotation":[
				-0.70710688829422,
				0,
				0,
				0.7071066498756409
			],
			"translation":[
				-0.022120952606201172,
				0.4701155424118042,
				0.05567849054932594
			]
		},
		{
			"mesh":1,
			"name":"Object_5.005",
			"rotation":[
				-0.70710688829422,
				0,
				0,
				0.7071066498756409
			]
		}
	],
	"materials":[
		{
			"doubleSided":true,
			"emissiveFactor":[
				1,
				1,
				1
			],
			"emissiveTexture":{
				"index":0
			},
			"name":"Kitchen_Cabins_Double.001",
			"normalTexture":{
				"index":1
			},
			"pbrMetallicRoughness":{
				"baseColorTexture":{
					"index":2
				},
				"metallicRoughnessTexture":{
					"index":3
				}
			}
		},
		{
			"doubleSided":true,
			"name":"Kitchen_Utensils.007",
			"pbrMetallicRoughness":{
				"baseColorTexture":{
					"index":4
				},
				"metallicRoughnessTexture":{
					"index":5
				}
			}
		}
	],
	"meshes":[
		{
			"name":"Object_2.001",
			"primitives":[
				{
					"attributes":{
						"POSITION":0,
						"NORMAL":1,
						"TEXCOORD_0":2
					},
					"indices":3,
					"material":0
				}
			]
		},
		{
			"name":"Object_3.017",
			"primitives":[
				{
					"attributes":{
						"POSITION":4,
						"NORMAL":5,
						"TEXCOORD_0":6
					},
					"indices":7,
					"material":1
				}
			]
		}
	],
	"textures":[
		{
			"sampler":0,
			"source":0
		},
		{
			"sampler":0,
			"source":1
		},
		{
			"sampler":0,
			"source":2
		},
		{
			"sampler":0,
			"source":3
		},
		{
			"sampler":0,
			"source":4
		},
		{
			"sampler":0,
			"source":5
		}
	],
	"images":[
		{
			"mimeType":"image/png",
			"name":"Image_7",
			"uri":"Image_7.png"
		},
		{
			"mimeType":"image/png",
			"name":"Image_8",
			"uri":"Image_8.png"
		},
		{
			"mimeType":"image/png",
			"name":"Image_5",
			"uri":"Image_5.png"
		},
		{
			"mimeType":"image/png",
			"name":"Image_6",
			"uri":"Image_6.png"
		},
		{
			"mimeType":"image/png",
			"name":"Image_9",
			"uri":"Image_9.png"
		},
		{
			"mimeType":"image/png",
			"name":"Image_10",
			"uri":"Image_10.png"
		}
	],
	"accessors":[
		{
			"bufferView":0,
			"componentType":5126,
			"count":1429,
			"max":[
				2.0219995975494385,
				1.1168651580810547,
				1.3276336193084717
			],
			"min":[
				-1.9777584075927734,
				-1.005506992340088,
				-0.9701154232025146
			],
			"type":"VEC3"
		},
		{
			"bufferView":1,
			"componentType":5126,
			"count":1429,
			"type":"VEC3"
		},
		{
			"bufferView":2,
			"componentType":5126,
			"count":1429,
			"type":"VEC2"
		},
		{
			"bufferView":3,
			"componentType":5123,
			"count":2688,
			"type":"SCALAR"
		},
		{
			"bufferView":4,
			"componentType":5126,
			"count":290,
			"max":[
				0.7505865097045898,
				0.7505865097045898,
				0.051726341247558594
			],
			"min":[
				-0.750586986541748,
				-0.7505865097045898,
				-0.057680726051330566
			],
			"type":"VEC3"
		},
		{
			"bufferView":5,
			"componentType":5126,
			"count":290,
			"type":"VEC3"
		},
		{
			"bufferView":6,
			"componentType":5126,
			"count":290,
			"type":"VEC2"
		},
		{
			"bufferView":7,
			"componentType":5123,
			"count":864,
			"type":"SCALAR"
		}
	],
	"bufferViews":[
		{
			"buffer":0,
			"byteLength":17148,
			"byteOffset":0,
			"target":34962
		},
		{
			"buffer":0,
			"byteLength":17148,
			"byteOffset":17148,
			"target":34962
		},
		{
			"buffer":0,
			"byteLength":11432,
			"byteOffset":34296,
			"target":34962
		},
		{
			"buffer":0,
			"byteLength":5376,
			"byteOffset":45728,
			"target":34963
		},
		{
			"buffer":0,
			"byteLength":3480,
			"byteOffset":51104,
			"target":34962
		},
		{
			"buffer":0,
			"byteLength":3480,
			"byteOffset":54584,
			"target":34962
		},
		{
			"buffer":0,
			"byteLength":2320,
			"byteOffset":58064,
			"target":34962
		},
		{
			"buffer":0,
			"byteLength":1728,
			"byteOffset":60384,
			"target":34963
		}
	],
	"samplers":[
		{
			"magFilter":9729,
			"minFilter":9987
		}
	],
	"buffers":[
		{
			"byteLength":62112,
			"uri":"washSink.bin"
		}
	]
}
