{
	"asset":{
		"generator":"Khronos glTF Blender I/O v4.5.49",
		"version":"2.0"
	},
	"scene":0,
	"scenes":[
		{
			"name":"Scene",
			"nodes":[
				14,
				16
			]
		}
	],
	"nodes":[
		{
			"mesh":0,
			"name":"Nose.004_Clothe_0",
			"scale":[
				2.121190309524536,
				2.121190309524536,
				2.121190309524536
			]
		},
		{
			"mesh":1,
			"name":"Nose.004_Clothe_0.001",
			"scale":[
				2.121190309524536,
				2.121190309524536,
				2.121190309524536
			]
		},
		{
			"mesh":2,
			"name":"Nose.004_Clothe_0.002",
			"scale":[
				2.121190309524536,
				2.121190309524536,
				2.121190309524536
			]
		},
		{
			"mesh":3,
			"name":"Nose.004_Eye-Center_0",
			"scale":[
				2.121190309524536,
				2.121190309524536,
				2.121190309524536
			]
		},
		{
			"mesh":4,
			"name":"Nose.004_Hat_0",
			"scale":[
				2.121190309524536,
				2.121190309524536,
				2.121190309524536
			]
		},
		{
			"mesh":5,
			"name":"Nose.004_Hat_0.001",
			"scale":[
				2.121190309524536,
				2.121190309524536,
				2.121190309524536
			]
		},
		{
			"mesh":6,
			"name":"Nose.004_Hat_0.002",
			"scale":[
				2.121190309524536,
				2.121190309524536,
				2.121190309524536
			]
		},
		{
			"mesh":7,
			"name":"Nose.004_Nose_0",
			"scale":[
				2.121190309524536,
				2.121190309524536,
				2.121190309524536
			]
		},
		{
			"mesh":8,
			"name":"Nose.004_Skin_0",
			"scale":[
				2.121190309524536,
				2.121190309524536,
				2.121190309524536
			]
		},
		{
			"mesh":9,
			"name":"Nose.004_Skin_0.001",
			"scale":[
				2.121190309524536,
				2.121190309524536,
				2.121190309524536
			]
		},
		{
			"mesh":10,
			"name":"Nose.004_Skin_0.002",
			"scale":[
				2.121190309524536,
				2.121190309524536,
				2.121190309524536
			]
		},
		{
			"children":[
				0,
				1,
				2,
				3,
				4,
				5,
				6,
				7,
				8,
				9,
				10
			],
			"name":"Nose.004",
			"rotation":[
				-0.70710688829422,
				0,
				0,
				0.7071066498756409
			],
			"scale":[
				100,
				99.99996948242188,
				99.99996948242188
			]
		},
		{
			"children":[
				11
			],
			"name":"RootNode",
			"scale":[
				0.5697759389877319,
				0.5697766542434692,
				0.5697766542434692
			]
		},
		{
			"children":[
				12
			],
			"name":"bb92861136d44e068bc38f478f1356e7.fbx",
			"rotation":[
				0.70710688829422,
				0,
				0,
				0.7071066498756409
			],
			"scale":[
				0.009999998845160007,
				0.009999997913837433,
				0.009999997913837433
			]
		},
		{
			"children":[
				13
			],
			"name":"Sketchfab_model.005",
			"rotation":[
				-0.7071069478988647,
				0,
				0,
				0.7071066498756409
			],
			"scale":[
				6,
				5.999999046325684,
				5.999999046325684
			]
		},
		{
			"name":"pug.obj.cleaner.materialmerger.gles"
		},
		{
			"children":[
				15
			],
			"name":"Sketchfab_model.006",
			"rotation":[
				-0.70710688829422,
				0,
				0,
				0.7071066498756409
			],
			"scale":[
				2,
				1.9999996423721313,
				1.9999996423721313
			]
		}
	],
	"materials":[
		{
			"doubleSided":true,
			"name":"Clothe",
			"pbrMetallicRoughness":{
				"baseColorFactor":[
					1,
					0.12371499836444855,
					0.12371499836444855,
					1
				],
				"metallicFactor":0,
				"roughnessFactor":0.9306789636611938
			}
		},
		{
			"doubleSided":true,
			"name":"Eye-Center",
			"pbrMetallicRoughness":{
				"baseColorFactor":[
					0.05780189856886864,
					0.05780189856886864,
					0.05780189856886864,
					1
				],
				"metallicFactor":0,
				"roughnessFactor":0.9870750904083252
			}
		},
		{
			"doubleSided":true,
			"name":"material",
			"pbrMetallicRoughness":{
				"metallicFactor":0,
				"roughnessFactor":0.7763931751251221
			}
		},
		{
			"doubleSided":true,
			"name":"Nose",
			"pbrMetallicRoughness":{
				"baseColorFactor":[
					1,
					0.20623600482940674,
					0.18390999734401703,
					1
				],
				"metallicFactor":0,
				"roughnessFactor":0.8992675542831421
			}
		},
		{
			"doubleSided":true,
			"name":"Skin",
			"pbrMetallicRoughness":{
				"baseColorFactor":[
					1,
					0.5770930051803589,
					0.33322998881340027,
					1
				],
				"metallicFactor":0,
				"roughnessFactor":0.8409310579299927
			}
		}
	],
	"meshes":[
		{
			"name":"Nose.004_Clothe_0",
			"primitives":[
				{
					"attributes":{
						"POSITION":0,
						"NORMAL":1,
						"TEXCOORD_0":2
					},
					"indices":3,
					"material":0
				}
			]
		},
		{
			"name":"Nose.004_Clothe_0.001",
			"primitives":[
				{
					"attributes":{
						"POSITION":4,
						"NORMAL":5,
						"TEXCOORD_0":6
					},
					"indices":3,
					"material":0
				}
			]
		},
		{
			"name":"Nose.004_Clothe_0.002",
			"primitives":[
				{
					"attributes":{
						"POSITION":7,
						"NORMAL":8,
						"TEXCOORD_0":9
					},
					"indices":10,
					"material":0
				}
			]
		},
		{
			"name":"Nose.004_Eye-Center_0",
			"primitives":[
				{
					"attributes":{
						"POSITION":11,
						"NORMAL":12,
						"TEXCOORD_0":13
					},
					"indices":14,
					"material":1
				}
			]
		},
		{
			"name":"Nose.004_Hat_0",
			"primitives":[
				{
					"attributes":{
						"POSITION":15,
						"NORMAL":16,
						"TEXCOORD_0":17
					},
					"indices":18,
					"material":2
				}
			]
		},
		{
			"name":"Nose.004_Hat_0.001",
			"primitives":[
				{
					"attributes":{
						"POSITION":19,
						"NORMAL":20,
						"TEXCOORD_0":21
					},
					"indices":22,
					"material":2
				}
			]
		},
		{
			"name":"Nose.004_Hat_0.002",
			"primitives":[
				{
					"attributes":{
						"POSITION":23,
						"NORMAL":24,
						"TEXCOORD_0":25
					},
					"indices":26,
					"material":2
				}
			]
		},
		{
			"name":"Nose.004_Nose_0",
			"primitives":[
				{
					"attributes":{
						"POSITION":27,
						"NORMAL":28,
						"TEXCOORD_0":29
					},
					"indices":30,
					"material":3
				}
			]
		},
		{
			"name":"Nose.004_Skin_0",
			"primitives":[
				{
					"attributes":{
						"POSITION":31,
						"NORMAL":32,
						"TEXCOORD_0":33
					},
					"indices":34,
					"material":4
				}
			]
		},
		{
			"name":"Nose.004_Skin_0.001",
			"primitives":[
				{
					"attributes":{
						"POSITION":35,
						"NORMAL":36,
						"TEXCOORD_0":37
					},
					"indices":38,
					"material":4
				}
			]
		},
		{
			"name":"Nose.004_Skin_0.002",
			"primitives":[
				{
					"attributes":{
						"POSITION":39,
						"NORMAL":40,
						"TEXCOORD_0":41
					},
					"indices":42,
					"material":4
				}
			]
		}
	],
	"accessors":[
		{
			"bufferView":0,
			"componentType":5126,
			"count":65532,
			"max":[
				0.10159280151128769,
				0.09568760544061661,
				0.18965940177440643
			],
			"min":[
				-0.08015245944261551,
				-0.10009975731372833,
				-9.113550186157227e-05
			],
			"type":"VEC3"
		},
		{
			"bufferView":1,
			"componentType":5126,
			"count":65532,
			"type":"VEC3"
		},
		{
			"bufferView":2,
			"componentType":5126,
			"count":65532,
			"type":"VEC2"
		},
		{
			"bufferView":3,
			"componentType":5123,
			"count":65532,
			"type":"SCALAR"
		},
		{
			"bufferView":4,
			"componentType":5126,
			"count":65532,
			"max":[
				0.10159280151128769,
				0.09578465670347214,
				0.18965940177440643
			],
			"min":[
				-0.10159280896186829,
				-0.0931156650185585,
				-9.113550186157227e-05
			],
			"type":"VEC3"
		},
		{
			"bufferView":5,
			"componentType":5126,
			"count":65532,
			"type":"VEC3"
		},
		{
			"bufferView":6,
			"componentType":5126,
			"count":65532,
			"type":"VEC2"
		},
		{
			"bufferView":7,
			"componentType":5126,
			"count":16392,
			"max":[
				0.007175121922045946,
				0.09578465670347214,
				0.1639433652162552
			],
			"min":[
				-0.10159280896186829,
				-0.07183359563350677,
				0.025296881794929504
			],
			"type":"VEC3"
		},
		{
			"bufferView":8,
			"componentType":5126,
			"count":16392,
			"type":"VEC3"
		},
		{
			"bufferView":9,
			"componentType":5126,
			"count":16392,
			"type":"VEC2"
		},
		{
			"bufferView":10,
			"componentType":5123,
			"count":16392,
			"type":"SCALAR"
		},
		{
			"bufferView":11,
			"componentType":5126,
			"count":204,
			"max":[
				0.047914937138557434,
				-0.06748893857002258,
				0.28035786747932434
			],
			"min":[
				-0.04791494831442833,
				-0.08233483880758286,
				0.2556873857975006
			],
			"type":"VEC3"
		},
		{
			"bufferView":12,
			"componentType":5126,
			"count":204,
			"type":"VEC3"
		},
		{
			"bufferView":13,
			"componentType":5126,
			"count":204,
			"type":"VEC2"
		},
		{
			"bufferView":14,
			"componentType":5123,
			"count":576,
			"type":"SCALAR"
		},
		{
			"bufferView":15,
			"componentType":5126,
			"count":65591,
			"max":[
				0.08808258175849915,
				0.08434692770242691,
				0.46556541323661804
			],
			"min":[
				-0.09525664895772934,
				-0.06827913224697113,
				0.31059569120407104
			],
			"type":"VEC3"
		},
		{
			"bufferView":16,
			"componentType":5126,
			"count":65591,
			"type":"VEC3"
		},
		{
			"bufferView":17,
			"componentType":5126,
			"count":65591,
			"type":"VEC2"
		},
		{
			"bufferView":18,
			"componentType":5125,
			"count":371715,
			"type":"SCALAR"
		},
		{
			"bufferView":19,
			"componentType":5126,
			"count":65639,
			"max":[
				0.09430917352437973,
				0.08544059842824936,
				0.4693857729434967
			],
			"min":[
				-0.09993709623813629,
				-0.10319581627845764,
				0.31059569120407104
			],
			"type":"VEC3"
		},
		{
			"bufferView":20,
			"componentType":5126,
			"count":65639,
			"type":"VEC3"
		},
		{
			"bufferView":21,
			"componentType":5126,
			"count":65639,
			"type":"VEC2"
		},
		{
			"bufferView":22,
			"componentType":5125,
			"count":340581,
			"type":"SCALAR"
		},
		{
			"bufferView":23,
			"componentType":5126,
			"count":62859,
			"max":[
				0.09428688883781433,
				0.09057389944791794,
				0.4693857729434967
			],
			"min":[
				-0.10148324072360992,
				-0.10393714904785156,
				0.31059569120407104
			],
			"type":"VEC3"
		},
		{
			"bufferView":24,
			"componentType":5126,
			"count":62859,
			"type":"VEC3"
		},
		{
			"bufferView":25,
			"componentType":5126,
			"count":62859,
			"type":"VEC2"
		},
		{
			"bufferView":26,
			"componentType":5123,
			"count":344724,
			"type":"SCALAR"
		},
		{
			"bufferView":27,
			"componentType":5126,
			"count":6369,
			"max":[
				0.020045220851898193,
				-0.06791110336780548,
				0.2648042142391205
			],
			"min":[
				-0.020045222714543343,
				-0.09382942318916321,
				0.22629772126674652
			],
			"type":"VEC3"
		},
		{
			"bufferView":28,
			"componentType":5126,
			"count":6369,
			"type":"VEC3"
		},
		{
			"bufferView":29,
			"componentType":5126,
			"count":6369,
			"type":"VEC2"
		},
		{
			"bufferView":30,
			"componentType":5123,
			"count":36864,
			"type":"SCALAR"
		},
		{
			"bufferView":31,
			"componentType":5126,
			"count":65564,
			"max":[
				0.15105801820755005,
				0.07146329432725906,
				0.31920409202575684
			],
			"min":[
				-0.15105801820755005,
				-0.08348225057125092,
				0.07763989269733429
			],
			"type":"VEC3"
		},
		{
			"bufferView":32,
			"componentType":5126,
			"count":65564,
			"type":"VEC3"
		},
		{
			"bufferView":33,
			"componentType":5126,
			"count":65564,
			"type":"VEC2"
		},
		{
			"bufferView":34,
			"componentType":5125,
			"count":252798,
			"type":"SCALAR"
		},
		{
			"bufferView":35,
			"componentType":5126,
			"count":65534,
			"max":[
				0.15046316385269165,
				0.08441900461912155,
				0.3421979546546936
			],
			"min":[
				-0.11020103096961975,
				-0.07832664996385574,
				0.08693504333496094
			],
			"type":"VEC3"
		},
		{
			"bufferView":36,
			"componentType":5126,
			"count":65534,
			"type":"VEC3"
		},
		{
			"bufferView":37,
			"componentType":5126,
			"count":65534,
			"type":"VEC2"
		},
		{
			"bufferView":38,
			"componentType":5123,
			"count":96015,
			"type":"SCALAR"
		},
		{
			"bufferView":39,
			"componentType":5126,
			"count":61073,
			"max":[
				0.13289061188697815,
				0.08441900461912155,
				0.3421979546546936
			],
			"min":[
				-0.15087077021598816,
				-0.08348225057125092,
				0.0776822566986084
			],
			"type":"VEC3"
		},
		{
			"bufferView":40,
			"componentType":5126,
			"count":61073,
			"type":"VEC3"
		},
		{
			"bufferView":41,
			"componentType":5126,
			"count":61073,
			"type":"VEC2"
		},
		{
			"bufferView":42,
			"componentType":5123,
			"count":61083,
			"type":"SCALAR"
		}
	],
	"bufferViews":[
		{
			"buffer":0,
			"byteLength":786384,
			"byteOffset":0,
			"target":34962
		},
		{
			"buffer":0,
			"byteLength":786384,
			"byteOffset":786384,
			"target":34962
		},
		{
			"buffer":0,
			"byteLength":524256,
			"byteOffset":1572768,
			"target":34962
		},
		{
			"buffer":0,
			"byteLength":131064,
			"byteOffset":2097024,
			"target":34963
		},
		{
			"buffer":0,
			"byteLength":786384,
			"byteOffset":2228088,
			"target":34962
		},
		{
			"buffer":0,
			"byteLength":786384,
			"byteOffset":3014472,
			"target":34962
		},
		{
			"buffer":0,
			"byteLength":524256,
			"byteOffset":3800856,
			"target":34962
		},
		{
			"buffer":0,
			"byteLength":196704,
			"byteOffset":4325112,
			"target":34962
		},
		{
			"buffer":0,
			"byteLength":196704,
			"byteOffset":4521816,
			"target":34962
		},
		{
			"buffer":0,
			"byteLength":131136,
			"byteOffset":4718520,
			"target":34962
		},
		{
			"buffer":0,
			"byteLength":32784,
			"byteOffset":4849656,
			"target":34963
		},
		{
			"buffer":0,
			"byteLength":2448,
			"byteOffset":4882440,
			"target":34962
		},
		{
			"buffer":0,
			"byteLength":2448,
			"byteOffset":4884888,
			"target":34962
		},
		{
			"buffer":0,
			"byteLength":1632,
			"byteOffset":4887336,
			"target":34962
		},
		{
			"buffer":0,
			"byteLength":1152,
			"byteOffset":4888968,
			"target":34963
		},
		{
			"buffer":0,
			"byteLength":787092,
			"byteOffset":4890120,
			"target":34962
		},
		{
			"buffer":0,
			"byteLength":787092,
			"byteOffset":5677212,
			"target":34962
		},
		{
			"buffer":0,
			"byteLength":524728,
			"byteOffset":6464304,
			"target":34962
		},
		{
			"buffer":0,
			"byteLength":1486860,
			"byteOffset":6989032,
			"target":34963
		},
		{
			"buffer":0,
			"byteLength":787668,
			"byteOffset":8475892,
			"target":34962
		},
		{
			"buffer":0,
			"byteLength":787668,
			"byteOffset":9263560,
			"target":34962
		},
		{
			"buffer":0,
			"byteLength":525112,
			"byteOffset":10051228,
			"target":34962
		},
		{
			"buffer":0,
			"byteLength":1362324,
			"byteOffset":10576340,
			"target":34963
		},
		{
			"buffer":0,
			"byteLength":754308,
			"byteOffset":11938664,
			"target":34962
		},
		{
			"buffer":0,
			"byteLength":754308,
			"byteOffset":12692972,
			"target":34962
		},
		{
			"buffer":0,
			"byteLength":502872,
			"byteOffset":13447280,
			"target":34962
		},
		{
			"buffer":0,
			"byteLength":689448,
			"byteOffset":13950152,
			"target":34963
		},
		{
			"buffer":0,
			"byteLength":76428,
			"byteOffset":14639600,
			"target":34962
		},
		{
			"buffer":0,
			"byteLength":76428,
			"byteOffset":14716028,
			"target":34962
		},
		{
			"buffer":0,
			"byteLength":50952,
			"byteOffset":14792456,
			"target":34962
		},
		{
			"buffer":0,
			"byteLength":73728,
			"byteOffset":14843408,
			"target":34963
		},
		{
			"buffer":0,
			"byteLength":786768,
			"byteOffset":14917136,
			"target":34962
		},
		{
			"buffer":0,
			"byteLength":786768,
			"byteOffset":15703904,
			"target":34962
		},
		{
			"buffer":0,
			"byteLength":524512,
			"byteOffset":16490672,
			"target":34962
		},
		{
			"buffer":0,
			"byteLength":1011192,
			"byteOffset":17015184,
			"target":34963
		},
		{
			"buffer":0,
			"byteLength":786408,
			"byteOffset":18026376,
			"target":34962
		},
		{
			"buffer":0,
			"byteLength":786408,
			"byteOffset":18812784,
			"target":34962
		},
		{
			"buffer":0,
			"byteLength":524272,
			"byteOffset":19599192,
			"target":34962
		},
		{
			"buffer":0,
			"byteLength":192030,
			"byteOffset":20123464,
			"target":34963
		},
		{
			"buffer":0,
			"byteLength":732876,
			"byteOffset":20315496,
			"target":34962
		},
		{
			"buffer":0,
			"byteLength":732876,
			"byteOffset":21048372,
			"target":34962
		},
		{
			"buffer":0,
			"byteLength":488584,
			"byteOffset":21781248,
			"target":34962
		},
		{
			"buffer":0,
			"byteLength":122166,
			"byteOffset":22269832,
			"target":34963
		}
	],
	"buffers":[
		{
			"byteLength":22392000,
			"uri":"little_chef_overcooked_like.bin"
		}
	]
}
