{
	"asset":{
		"generator":"Khronos glTF Blender I/O v4.5.49",
		"version":"2.0"
	},
	"scene":0,
	"scenes":[
		{
			"name":"Scene",
			"nodes":[
				9
			]
		}
	],
	"nodes":[
		{
			"mesh":0,
			"name":"Object_2",
			"translation":[
				0.006033335812389851,
				-0.001134055550210178,
				0.27473270893096924
			]
		},
		{
			"mesh":1,
			"name":"Object_3.001",
			"translation":[
				0.006033335812389851,
				-0.001134055550210178,
				0.27473270893096924
			]
		},
		{
			"mesh":2,
			"name":"Object_4",
			"translation":[
				0.006033335812389851,
				-0.001134055550210178,
				0.27473270893096924
			]
		},
		{
			"mesh":3,
			"name":"Object_5",
			"translation":[
				0.006033335812389851,
				-0.001134055550210178,
				0.27473270893096924
			]
		},
		{
			"mesh":4,
			"name":"Object_6",
			"scale":[
				1,
				1,
				2
			]
		},
		{
			"mesh":5,
			"name":"Object_7",
			"translation":[
				0.006033335812389851,
				-0.001134055550210178,
				0.27473270893096924
			]
		},
		{
			"mesh":6,
			"name":"Object_8",
			"translation":[
				0.006033335812389851,
				-0.001134055550210178,
				0.27473270893096924
			]
		},
		{
			"mesh":7,
			"name":"Object_9",
			"translation":[
				0.006033335812389851,
				-0.001134055550210178,
				0.27473270893096924
			]
		},
		{
			"children":[
				0,
				1,
				2,
				3,
				4,
				5,
				6,
				7
			],
			"name":"pug.obj.cleaner.materialmerger.gles"
		},
		{
			"children":[
				8
			],
			"name":"Sketchfab_model.006",
			"rotation":[
				-0.70710688829422,
				0,
				0,
				0.7071066498756409
			],
			"scale":[
				2,
				1.999999761581421,
				1.999999761581421
			]
		}
	],
	"materials":[
		{
			"doubleSided":true,
			"name":"aiEyes.002",
			"pbrMetallicRoughness":{
				"baseColorTexture":{
					"index":0
				},
				"metallicFactor":0,
				"roughnessFactor":0.4577230215072632
			}
		},
		{
			"alphaMode":"BLEND",
			"doubleSided":true,
			"name":"ailens.002",
			"pbrMetallicRoughness":{
				"baseColorFactor":[
					0.02603074163198471,
					0.02603074163198471,
					0.02603074163198471,
					0.4273221790790558
				],
				"baseColorTexture":{
					"index":1
				},
				"metallicFactor":0,
				"roughnessFactor":0.019950568675994873
			}
		},
		{
			"doubleSided":true,
			"name":"body_m.002",
			"normalTexture":{
				"index":2
			},
			"pbrMetallicRoughness":{
				"baseColorTexture":{
					"index":3
				},
				"metallicFactor":0,
				"metallicRoughnessTexture":{
					"index":4
				}
			}
		},
		{
			"doubleSided":true,
			"name":"bottom_m.002",
			"pbrMetallicRoughness":{
				"baseColorTexture":{
					"index":5
				},
				"metallicFactor":0,
				"roughnessFactor":0.9137360453605652
			}
		},
		{
			"doubleSided":true,
			"name":"buttons_m.002",
			"normalTexture":{
				"index":6
			},
			"pbrMetallicRoughness":{
				"baseColorTexture":{
					"index":7
				},
				"metallicFactor":0,
				"metallicRoughnessTexture":{
					"index":8
				}
			}
		},
		{
			"doubleSided":true,
			"name":"hat_m.002",
			"normalTexture":{
				"index":9
			},
			"pbrMetallicRoughness":{
				"baseColorTexture":{
					"index":10
				},
				"metallicFactor":0,
				"metallicRoughnessTexture":{
					"index":11
				}
			}
		},
		{
			"doubleSided":true,
			"name":"head_m.002",
			"normalTexture":{
				"index":12
			},
			"pbrMetallicRoughness":{
				"baseColorTexture":{
					"index":13
				},
				"metallicFactor":0,
				"metallicRoughnessTexture":{
					"index":14
				}
			}
		}
	],
	"meshes":[
		{
			"name":"Object_0.002",
			"primitives":[
				{
					"attributes":{
						"POSITION":0,
						"NORMAL":1,
						"TEXCOORD_0":2
					},
					"indices":3,
					"material":0
				}
			]
		},
		{
			"name":"Object_1.034",
			"primitives":[
				{
					"attributes":{
						"POSITION":4,
						"NORMAL":5,
						"TEXCOORD_0":6
					},
					"indices":7,
					"material":1
				}
			]
		},
		{
			"name":"Object_2.023",
			"primitives":[
				{
					"attributes":{
						"POSITION":8,
						"NORMAL":9,
						"TEXCOORD_0":10
					},
					"indices":11,
					"material":2
				}
			]
		},
		{
			"name":"Object_3.002",
			"primitives":[
				{
					"attributes":{
						"POSITION":12,
						"NORMAL":13,
						"TEXCOORD_0":14
					},
					"indices":15,
					"material":2
				}
			]
		},
		{
			"name":"Object_4.002",
			"primitives":[
				{
					"attributes":{
						"POSITION":16,
						"NORMAL":17,
						"TEXCOORD_0":18
					},
					"indices":19,
					"material":3
				}
			]
		},
		{
			"name":"Object_5.002",
			"primitives":[
				{
					"attributes":{
						"POSITION":20,
						"NORMAL":21,
						"TEXCOORD_0":22
					},
					"indices":23,
					"material":4
				}
			]
		},
		{
			"name":"Object_6.002",
			"primitives":[
				{
					"attributes":{
						"POSITION":24,
						"NORMAL":25,
						"TEXCOORD_0":26
					},
					"indices":27,
					"material":5
				}
			]
		},
		{
			"name":"Object_7.002",
			"primitives":[
				{
					"attributes":{
						"POSITION":28,
						"NORMAL":29,
						"TEXCOORD_0":30
					},
					"indices":31,
					"material":6
				}
			]
		}
	],
	"textures":[
		{
			"sampler":0,
			"source":0
		},
		{
			"sampler":0,
			"source":0
		},
		{
			"sampler":0,
			"source":1
		},
		{
			"sampler":0,
			"source":2
		},
		{
			"sampler":0,
			"source":3
		},
		{
			"sampler":0,
			"source":4
		},
		{
			"sampler":0,
			"source":5
		},
		{
			"sampler":0,
			"source":6
		},
		{
			"sampler":0,
			"source":7
		},
		{
			"sampler":0,
			"source":8
		},
		{
			"sampler":0,
			"source":9
		},
		{
			"sampler":0,
			"source":10
		},
		{
			"sampler":0,
			"source":11
		},
		{
			"sampler":0,
			"source":12
		},
		{
			"sampler":0,
			"source":13
		}
	],
	"images":[
		{
			"mimeType":"image/png",
			"name":"Image_0",
			"uri":"Image_0.png"
		},
		{
			"mimeType":"image/png",
			"name":"Image_3",
			"uri":"Image_3.png"
		},
		{
			"mimeType":"image/png",
			"name":"Image_1",
			"uri":"Image_1.png"
		},
		{
			"mimeType":"image/png",
			"name":"Image_2",
			"uri":"Image_2.png"
		},
		{
			"mimeType":"image/png",
			"name":"Image_4",
			"uri":"Image_4.png"
		},
		{
			"mimeType":"image/png",
			"name":"Image_7",
			"uri":"Image_7.png"
		},
		{
			"mimeType":"image/png",
			"name":"Image_5",
			"uri":"Image_5.png"
		},
		{
			"mimeType":"image/png",
			"name":"Image_6",
			"uri":"Image_6.png"
		},
		{
			"mimeType":"image/png",
			"name":"Image_10",
			"uri":"Image_10.png"
		},
		{
			"mimeType":"image/png",
			"name":"Image_8",
			"uri":"Image_8.png"
		},
		{
			"mimeType":"image/png",
			"name":"Image_9",
			"uri":"Image_9.png"
		},
		{
			"mimeType":"image/png",
			"name":"Image_13",
			"uri":"Image_13.png"
		},
		{
			"mimeType":"image/png",
			"name":"Image_11",
			"uri":"Image_11.png"
		},
		{
			"mimeType":"image/png",
			"name":"Image_12",
			"uri":"Image_12.png"
		}
	],
	"accessors":[
		{
			"bufferView":0,
			"componentType":5126,
			"count":674,
			"max":[
				0.26754599809646606,
				-0.18469800055027008,
				1.0310150384902954
			],
			"min":[
				-0.26754599809646606,
				-0.3244769871234894,
				0.8649089932441711
			],
			"type":"VEC3"
		},
		{
			"bufferView":1,
			"componentType":5126,
			"count":674,
			"type":"VEC3"
		},
		{
			"bufferView":2,
			"componentType":5126,
			"count":674,
			"type":"VEC2"
		},
		{
			"bufferView":3,
			"componentType":5123,
			"count":3888,
			"type":"SCALAR"
		},
		{
			"bufferView":4,
			"componentType":5126,
			"count":1246,
			"max":[
				0.26951101422309875,
				-0.15599699318408966,
				1.0315539836883545
			],
			"min":[
				-0.26951101422309875,
				-0.3255529999732971,
				0.8636519908905029
			],
			"type":"VEC3"
		},
		{
			"bufferView":5,
			"componentType":5126,
			"count":1246,
			"type":"VEC3"
		},
		{
			"bufferView":6,
			"componentType":5126,
			"count":1246,
			"type":"VEC2"
		},
		{
			"bufferView":7,
			"componentType":5123,
			"count":6624,
			"type":"SCALAR"
		},
		{
			"bufferView":8,
			"componentType":5126,
			"count":70600,
			"max":[
				0.412445992231369,
				0.5283719897270203,
				0.6539440155029297
			],
			"min":[
				-0.4124560058116913,
				-0.4177449941635132,
				0.1525620073080063
			],
			"type":"VEC3"
		},
		{
			"bufferView":9,
			"componentType":5126,
			"count":70600,
			"type":"VEC3"
		},
		{
			"bufferView":10,
			"componentType":5126,
			"count":70600,
			"type":"VEC2"
		},
		{
			"bufferView":11,
			"componentType":5125,
			"count":371643,
			"type":"SCALAR"
		},
		{
			"bufferView":12,
			"componentType":5126,
			"count":27420,
			"max":[
				0.40342798829078674,
				0.5049459934234619,
				0.6534199714660645
			],
			"min":[
				-0.3984130024909973,
				-0.43387898802757263,
				0.1448349952697754
			],
			"type":"VEC3"
		},
		{
			"bufferView":13,
			"componentType":5126,
			"count":27420,
			"type":"VEC3"
		},
		{
			"bufferView":14,
			"componentType":5126,
			"count":27420,
			"type":"VEC2"
		},
		{
			"bufferView":15,
			"componentType":5123,
			"count":152757,
			"type":"SCALAR"
		},
		{
			"bufferView":16,
			"componentType":5126,
			"count":3969,
			"max":[
				0.3982509970664978,
				0.40027400851249695,
				0.26284900307655334
			],
			"min":[
				-0.3982509970664978,
				-0.39622798562049866,
				0.0052640000358223915
			],
			"type":"VEC3"
		},
		{
			"bufferView":17,
			"componentType":5126,
			"count":3969,
			"type":"VEC3"
		},
		{
			"bufferView":18,
			"componentType":5126,
			"count":3969,
			"type":"VEC2"
		},
		{
			"bufferView":19,
			"componentType":5123,
			"count":23424,
			"type":"SCALAR"
		},
		{
			"bufferView":20,
			"componentType":5126,
			"count":1158,
			"max":[
				0.24362100660800934,
				-0.26006799936294556,
				0.4899280071258545
			],
			"min":[
				-0.24362100660800934,
				-0.3585200011730194,
				0.2695780098438263
			],
			"type":"VEC3"
		},
		{
			"bufferView":21,
			"componentType":5126,
			"count":1158,
			"type":"VEC3"
		},
		{
			"bufferView":22,
			"componentType":5126,
			"count":1158,
			"type":"VEC2"
		},
		{
			"bufferView":23,
			"componentType":5123,
			"count":5712,
			"type":"SCALAR"
		},
		{
			"bufferView":24,
			"componentType":5126,
			"count":6844,
			"max":[
				0.4229480028152466,
				0.48804500699043274,
				1.7641429901123047
			],
			"min":[
				-0.4156399965286255,
				-0.3321419954299927,
				1.072909951210022
			],
			"type":"VEC3"
		},
		{
			"bufferView":25,
			"componentType":5126,
			"count":6844,
			"type":"VEC3"
		},
		{
			"bufferView":26,
			"componentType":5126,
			"count":6844,
			"type":"VEC2"
		},
		{
			"bufferView":27,
			"componentType":5123,
			"count":38220,
			"type":"SCALAR"
		},
		{
			"bufferView":28,
			"componentType":5126,
			"count":24778,
			"max":[
				0.6342589855194092,
				0.34675800800323486,
				1.2466870546340942
			],
			"min":[
				-0.6342660188674927,
				-0.411965012550354,
				0.20615200698375702
			],
			"type":"VEC3"
		},
		{
			"bufferView":29,
			"componentType":5126,
			"count":24778,
			"type":"VEC3"
		},
		{
			"bufferView":30,
			"componentType":5126,
			"count":24778,
			"type":"VEC2"
		},
		{
			"bufferView":31,
			"componentType":5123,
			"count":145350,
			"type":"SCALAR"
		}
	],
	"bufferViews":[
		{
			"buffer":0,
			"byteLength":8088,
			"byteOffset":0,
			"target":34962
		},
		{
			"buffer":0,
			"byteLength":8088,
			"byteOffset":8088,
			"target":34962
		},
		{
			"buffer":0,
			"byteLength":5392,
			"byteOffset":16176,
			"target":34962
		},
		{
			"buffer":0,
			"byteLength":7776,
			"byteOffset":21568,
			"target":34963
		},
		{
			"buffer":0,
			"byteLength":14952,
			"byteOffset":29344,
			"target":34962
		},
		{
			"buffer":0,
			"byteLength":14952,
			"byteOffset":44296,
			"target":34962
		},
		{
			"buffer":0,
			"byteLength":9968,
			"byteOffset":59248,
			"target":34962
		},
		{
			"buffer":0,
			"byteLength":13248,
			"byteOffset":69216,
			"target":34963
		},
		{
			"buffer":0,
			"byteLength":847200,
			"byteOffset":82464,
			"target":34962
		},
		{
			"buffer":0,
			"byteLength":847200,
			"byteOffset":929664,
			"target":34962
		},
		{
			"buffer":0,
			"byteLength":564800,
			"byteOffset":1776864,
			"target":34962
		},
		{
			"buffer":0,
			"byteLength":1486572,
			"byteOffset":2341664,
			"target":34963
		},
		{
			"buffer":0,
			"byteLength":329040,
			"byteOffset":3828236,
			"target":34962
		},
		{
			"buffer":0,
			"byteLength":329040,
			"byteOffset":4157276,
			"target":34962
		},
		{
			"buffer":0,
			"byteLength":219360,
			"byteOffset":4486316,
			"target":34962
		},
		{
			"buffer":0,
			"byteLength":305514,
			"byteOffset":4705676,
			"target":34963
		},
		{
			"buffer":0,
			"byteLength":47628,
			"byteOffset":5011192,
			"target":34962
		},
		{
			"buffer":0,
			"byteLength":47628,
			"byteOffset":5058820,
			"target":34962
		},
		{
			"buffer":0,
			"byteLength":31752,
			"byteOffset":5106448,
			"target":34962
		},
		{
			"buffer":0,
			"byteLength":46848,
			"byteOffset":5138200,
			"target":34963
		},
		{
			"buffer":0,
			"byteLength":13896,
			"byteOffset":5185048,
			"target":34962
		},
		{
			"buffer":0,
			"byteLength":13896,
			"byteOffset":5198944,
			"target":34962
		},
		{
			"buffer":0,
			"byteLength":9264,
			"byteOffset":5212840,
			"target":34962
		},
		{
			"buffer":0,
			"byteLength":11424,
			"byteOffset":5222104,
			"target":34963
		},
		{
			"buffer":0,
			"byteLength":82128,
			"byteOffset":5233528,
			"target":34962
		},
		{
			"buffer":0,
			"byteLength":82128,
			"byteOffset":5315656,
			"target":34962
		},
		{
			"buffer":0,
			"byteLength":54752,
			"byteOffset":5397784,
			"target":34962
		},
		{
			"buffer":0,
			"byteLength":76440,
			"byteOffset":5452536,
			"target":34963
		},
		{
			"buffer":0,
			"byteLength":297336,
			"byteOffset":5528976,
			"target":34962
		},
		{
			"buffer":0,
			"byteLength":297336,
			"byteOffset":5826312,
			"target":34962
		},
		{
			"buffer":0,
			"byteLength":198224,
			"byteOffset":6123648,
			"target":34962
		},
		{
			"buffer":0,
			"byteLength":290700,
			"byteOffset":6321872,
			"target":34963
		}
	],
	"samplers":[
		{
			"magFilter":9729,
			"minFilter":9987
		}
	],
	"buffers":[
		{
			"byteLength":6612572,
			"uri":"overcooked_-_pug_character.bin"
		}
	]
}
