{
	"asset":{
		"generator":"Khronos glTF Blender I/O v4.5.49",
		"version":"2.0"
	},
	"scene":0,
	"scenes":[
		{
			"name":"Scene",
			"nodes":[
				9
			]
		}
	],
	"nodes":[
		{
			"mesh":0,
			"name":"body",
			"translation":[
				-5.481787866301602e-06,
				-0.037145763635635376,
				0.9189463257789612
			]
		},
		{
			"mesh":1,
			"name":"clothes",
			"translation":[
				-5.481787866301602e-06,
				-0.037145763635635376,
				0.9189463257789612
			]
		},
		{
			"mesh":2,
			"name":"eye",
			"translation":[
				-5.481787866301602e-06,
				-0.037145763635635376,
				0.9189463257789612
			]
		},
		{
			"mesh":3,
			"name":"hat",
			"translation":[
				-5.481787866301602e-06,
				-0.037145763635635376,
				0.9189463257789612
			]
		},
		{
			"mesh":4,
			"name":"head",
			"translation":[
				-5.481787866301602e-06,
				-0.037145763635635376,
				0.9189463257789612
			]
		},
		{
			"mesh":5,
			"name":"leftHand",
			"rotation":[
				-0.0003253886243328452,
				0,
				0,
				1
			],
			"scale":[
				0.9997022747993469,
				1,
				1
			],
			"translation":[
				-5.481787866301602e-06,
				-0.037179600447416306,
				0.9189463257789612
			]
		},
		{
			"mesh":6,
			"name":"Object_6",
			"translation":[
				-5.481787866301602e-06,
				-0.037145763635635376,
				0.9189463257789612
			]
		},
		{
			"mesh":7,
			"name":"rightHand",
			"rotation":[
				-0.0003253886243328452,
				0,
				0,
				1
			],
			"scale":[
				0.9997022747993469,
				1,
				1
			],
			"translation":[
				-5.481787866301602e-06,
				-0.037179600447416306,
				0.9189463257789612
			]
		},
		{
			"children":[
				0,
				1,
				2,
				3,
				4,
				5,
				6,
				7
			],
			"name":"pug.obj.cleaner.materialmerger.gles"
		},
		{
			"children":[
				8
			],
			"name":"Sketchfab_model.006",
			"rotation":[
				-0.70710688829422,
				0,
				0,
				0.7071066498756409
			],
			"scale":[
				2,
				1.999999761581421,
				1.999999761581421
			]
		}
	],
	"animations":[
		{
			"channels":[
				{
					"sampler":0,
					"target":{
						"node":5,
						"path":"translation"
					}
				},
				{
					"sampler":1,
					"target":{
						"node":5,
						"path":"rotation"
					}
				},
				{
					"sampler":2,
					"target":{
						"node":5,
						"path":"scale"
					}
				},
				{
					"sampler":3,
					"target":{
						"node":7,
						"path":"translation"
					}
				},
				{
					"sampler":4,
					"target":{
						"node":7,
						"path":"rotation"
					}
				},
				{
					"sampler":5,
					"target":{
						"node":7,
						"path":"scale"
					}
				}
			],
			"name":"grabFood",
			"samplers":[
				{
					"input":36,
					"interpolation":"LINEAR",
					"output":37
				},
				{
					"input":36,
					"interpolation":"LINEAR",
					"output":38
				},
				{
					"input":36,
					"interpolation":"LINEAR",
					"output":39
				},
				{
					"input":36,
					"interpolation":"LINEAR",
					"output":37
				},
				{
					"input":36,
					"interpolation":"LINEAR",
					"output":38
				},
				{
					"input":36,
					"interpolation":"LINEAR",
					"output":39
				}
			]
		},
		{
			"channels":[
				{
					"sampler":0,
					"target":{
						"node":5,
						"path":"translation"
					}
				},
				{
					"sampler":1,
					"target":{
						"node":5,
						"path":"rotation"
					}
				},
				{
					"sampler":2,
					"target":{
						"node":5,
						"path":"scale"
					}
				},
				{
					"sampler":3,
					"target":{
						"node":7,
						"path":"translation"
					}
				},
				{
					"sampler":4,
					"target":{
						"node":7,
						"path":"rotation"
					}
				},
				{
					"sampler":5,
					"target":{
						"node":7,
						"path":"scale"
					}
				}
			],
			"name":"grabPlate",
			"samplers":[
				{
					"input":40,
					"interpolation":"STEP",
					"output":41
				},
				{
					"input":36,
					"interpolation":"LINEAR",
					"output":42
				},
				{
					"input":36,
					"interpolation":"LINEAR",
					"output":43
				},
				{
					"input":40,
					"interpolation":"STEP",
					"output":41
				},
				{
					"input":36,
					"interpolation":"LINEAR",
					"output":42
				},
				{
					"input":36,
					"interpolation":"LINEAR",
					"output":43
				}
			]
		},
		{
			"channels":[
				{
					"sampler":0,
					"target":{
						"node":5,
						"path":"translation"
					}
				},
				{
					"sampler":1,
					"target":{
						"node":5,
						"path":"rotation"
					}
				},
				{
					"sampler":2,
					"target":{
						"node":5,
						"path":"scale"
					}
				},
				{
					"sampler":3,
					"target":{
						"node":7,
						"path":"translation"
					}
				},
				{
					"sampler":4,
					"target":{
						"node":7,
						"path":"rotation"
					}
				},
				{
					"sampler":5,
					"target":{
						"node":7,
						"path":"scale"
					}
				}
			],
			"name":"handDownFood",
			"samplers":[
				{
					"input":36,
					"interpolation":"LINEAR",
					"output":44
				},
				{
					"input":36,
					"interpolation":"LINEAR",
					"output":45
				},
				{
					"input":36,
					"interpolation":"LINEAR",
					"output":46
				},
				{
					"input":36,
					"interpolation":"LINEAR",
					"output":44
				},
				{
					"input":36,
					"interpolation":"LINEAR",
					"output":45
				},
				{
					"input":36,
					"interpolation":"LINEAR",
					"output":46
				}
			]
		},
		{
			"channels":[
				{
					"sampler":0,
					"target":{
						"node":5,
						"path":"translation"
					}
				},
				{
					"sampler":1,
					"target":{
						"node":5,
						"path":"rotation"
					}
				},
				{
					"sampler":2,
					"target":{
						"node":5,
						"path":"scale"
					}
				},
				{
					"sampler":3,
					"target":{
						"node":7,
						"path":"translation"
					}
				},
				{
					"sampler":4,
					"target":{
						"node":7,
						"path":"rotation"
					}
				},
				{
					"sampler":5,
					"target":{
						"node":7,
						"path":"scale"
					}
				}
			],
			"name":"handDownPlate",
			"samplers":[
				{
					"input":40,
					"interpolation":"STEP",
					"output":41
				},
				{
					"input":36,
					"interpolation":"LINEAR",
					"output":47
				},
				{
					"input":36,
					"interpolation":"LINEAR",
					"output":48
				},
				{
					"input":40,
					"interpolation":"STEP",
					"output":41
				},
				{
					"input":36,
					"interpolation":"LINEAR",
					"output":47
				},
				{
					"input":36,
					"interpolation":"LINEAR",
					"output":48
				}
			]
		}
	],
	"materials":[
		{
			"doubleSided":true,
			"name":"body_m.001",
			"normalTexture":{
				"index":0
			},
			"pbrMetallicRoughness":{
				"baseColorTexture":{
					"index":1
				},
				"metallicFactor":0,
				"metallicRoughnessTexture":{
					"index":2
				}
			}
		},
		{
			"doubleSided":true,
			"name":"buttons_m.001",
			"normalTexture":{
				"index":3
			},
			"pbrMetallicRoughness":{
				"baseColorTexture":{
					"index":4
				},
				"metallicFactor":0,
				"metallicRoughnessTexture":{
					"index":5
				}
			}
		},
		{
			"alphaMode":"BLEND",
			"doubleSided":true,
			"name":"ailens.001",
			"pbrMetallicRoughness":{
				"baseColorFactor":[
					0.02603074163198471,
					0.02603074163198471,
					0.02603074163198471,
					0.4273221790790558
				],
				"baseColorTexture":{
					"index":6
				},
				"metallicFactor":0,
				"roughnessFactor":0.019950568675994873
			}
		},
		{
			"doubleSided":true,
			"name":"hat_m.001",
			"normalTexture":{
				"index":7
			},
			"pbrMetallicRoughness":{
				"baseColorTexture":{
					"index":8
				},
				"metallicFactor":0,
				"metallicRoughnessTexture":{
					"index":9
				}
			}
		},
		{
			"doubleSided":true,
			"name":"head_m.001",
			"normalTexture":{
				"index":10
			},
			"pbrMetallicRoughness":{
				"baseColorTexture":{
					"index":11
				},
				"metallicFactor":0,
				"metallicRoughnessTexture":{
					"index":12
				}
			}
		},
		{
			"doubleSided":true,
			"name":"bottom_m.001",
			"pbrMetallicRoughness":{
				"baseColorTexture":{
					"index":13
				},
				"metallicFactor":0,
				"roughnessFactor":0.9137360453605652
			}
		}
	],
	"meshes":[
		{
			"name":"Object_2.002",
			"primitives":[
				{
					"attributes":{
						"POSITION":0,
						"NORMAL":1,
						"TEXCOORD_0":2
					},
					"indices":3,
					"material":0
				}
			]
		},
		{
			"name":"Object_5.001",
			"primitives":[
				{
					"attributes":{
						"POSITION":4,
						"NORMAL":5,
						"TEXCOORD_0":6
					},
					"indices":7,
					"material":1
				},
				{
					"attributes":{
						"POSITION":8,
						"NORMAL":9,
						"TEXCOORD_0":10
					},
					"indices":11,
					"material":0
				}
			]
		},
		{
			"name":"Object_1.001",
			"primitives":[
				{
					"attributes":{
						"POSITION":12,
						"NORMAL":13,
						"TEXCOORD_0":14
					},
					"indices":15,
					"material":2
				}
			]
		},
		{
			"name":"Object_6.001",
			"primitives":[
				{
					"attributes":{
						"POSITION":16,
						"NORMAL":17,
						"TEXCOORD_0":18
					},
					"indices":19,
					"material":3
				}
			]
		},
		{
			"name":"Object_7.001",
			"primitives":[
				{
					"attributes":{
						"POSITION":20,
						"NORMAL":21,
						"TEXCOORD_0":22
					},
					"indices":23,
					"material":4
				}
			]
		},
		{
			"name":"Object_7.002",
			"primitives":[
				{
					"attributes":{
						"POSITION":24,
						"NORMAL":25,
						"TEXCOORD_0":26
					},
					"indices":27,
					"material":4
				}
			]
		},
		{
			"name":"Object_4.001",
			"primitives":[
				{
					"attributes":{
						"POSITION":28,
						"NORMAL":29,
						"TEXCOORD_0":30
					},
					"indices":31,
					"material":5
				}
			]
		},
		{
			"name":"Object_7.003",
			"primitives":[
				{
					"attributes":{
						"POSITION":32,
						"NORMAL":33,
						"TEXCOORD_0":34
					},
					"indices":35,
					"material":4
				}
			]
		}
	],
	"textures":[
		{
			"sampler":0,
			"source":0
		},
		{
			"sampler":0,
			"source":1
		},
		{
			"sampler":0,
			"source":2
		},
		{
			"sampler":0,
			"source":3
		},
		{
			"sampler":0,
			"source":4
		},
		{
			"sampler":0,
			"source":5
		},
		{
			"sampler":0,
			"source":6
		},
		{
			"sampler":0,
			"source":7
		},
		{
			"sampler":0,
			"source":8
		},
		{
			"sampler":0,
			"source":9
		},
		{
			"sampler":0,
			"source":10
		},
		{
			"sampler":0,
			"source":11
		},
		{
			"sampler":0,
			"source":12
		},
		{
			"sampler":0,
			"source":13
		}
	],
	"images":[
		{
			"mimeType":"image/png",
			"name":"Image_3",
			"uri":"Image_3.png"
		},
		{
			"mimeType":"image/png",
			"name":"Image_1",
			"uri":"Image_1.png"
		},
		{
			"mimeType":"image/png",
			"name":"Image_2",
			"uri":"Image_2.png"
		},
		{
			"mimeType":"image/png",
			"name":"Image_7",
			"uri":"Image_7.png"
		},
		{
			"mimeType":"image/png",
			"name":"Image_5",
			"uri":"Image_5.png"
		},
		{
			"mimeType":"image/png",
			"name":"Image_6",
			"uri":"Image_6.png"
		},
		{
			"mimeType":"image/png",
			"name":"Image_0",
			"uri":"Image_0.png"
		},
		{
			"mimeType":"image/png",
			"name":"Image_10",
			"uri":"Image_10.png"
		},
		{
			"mimeType":"image/png",
			"name":"Image_8",
			"uri":"Image_8.png"
		},
		{
			"mimeType":"image/png",
			"name":"Image_9",
			"uri":"Image_9.png"
		},
		{
			"mimeType":"image/png",
			"name":"Image_13",
			"uri":"Image_13.png"
		},
		{
			"mimeType":"image/png",
			"name":"Image_11",
			"uri":"Image_11.png"
		},
		{
			"mimeType":"image/png",
			"name":"Image_12",
			"uri":"Image_12.png"
		},
		{
			"mimeType":"image/png",
			"name":"Image_4",
			"uri":"Image_4.png"
		}
	],
	"accessors":[
		{
			"bufferView":0,
			"componentType":5126,
			"count":71098,
			"max":[
				0.41245147585868835,
				0.565517783164978,
				-0.2650023102760315
			],
			"min":[
				-0.41245052218437195,
				-0.3805992305278778,
				-0.7663843035697937
			],
			"type":"VEC3"
		},
		{
			"bufferView":1,
			"componentType":5126,
			"count":71098,
			"type":"VEC3"
		},
		{
			"bufferView":2,
			"componentType":5126,
			"count":71098,
			"type":"VEC2"
		},
		{
			"bufferView":3,
			"componentType":5125,
			"count":371643,
			"type":"SCALAR"
		},
		{
			"bufferView":4,
			"componentType":5126,
			"count":1158,
			"max":[
				0.24362649023532867,
				-0.22292223572731018,
				-0.4290183186531067
			],
			"min":[
				-0.24361552298069,
				-0.32137423753738403,
				-0.6493682861328125
			],
			"type":"VEC3"
		},
		{
			"bufferView":5,
			"componentType":5126,
			"count":1158,
			"type":"VEC3"
		},
		{
			"bufferView":6,
			"componentType":5126,
			"count":1158,
			"type":"VEC2"
		},
		{
			"bufferView":7,
			"componentType":5123,
			"count":5712,
			"type":"SCALAR"
		},
		{
			"bufferView":8,
			"componentType":5126,
			"count":27425,
			"max":[
				0.4034334719181061,
				0.5420917272567749,
				-0.26552635431289673
			],
			"min":[
				-0.398407518863678,
				-0.39673322439193726,
				-0.7741113305091858
			],
			"type":"VEC3"
		},
		{
			"bufferView":9,
			"componentType":5126,
			"count":27425,
			"type":"VEC3"
		},
		{
			"bufferView":10,
			"componentType":5126,
			"count":27425,
			"type":"VEC2"
		},
		{
			"bufferView":11,
			"componentType":5123,
			"count":152757,
			"type":"SCALAR"
		},
		{
			"bufferView":12,
			"componentType":5126,
			"count":1246,
			"max":[
				0.2695164978504181,
				-0.11885122954845428,
				0.11260765790939331
			],
			"min":[
				-0.2695055305957794,
				-0.28840723633766174,
				-0.05529433488845825
			],
			"type":"VEC3"
		},
		{
			"bufferView":13,
			"componentType":5126,
			"count":1246,
			"type":"VEC3"
		},
		{
			"bufferView":14,
			"componentType":5126,
			"count":1246,
			"type":"VEC2"
		},
		{
			"bufferView":15,
			"componentType":5123,
			"count":6624,
			"type":"SCALAR"
		},
		{
			"bufferView":16,
			"componentType":5126,
			"count":6844,
			"max":[
				0.4229534864425659,
				0.5251907706260681,
				0.8451966643333435
			],
			"min":[
				-0.41563451290130615,
				-0.2949962317943573,
				0.1539636254310608
			],
			"type":"VEC3"
		},
		{
			"bufferView":17,
			"componentType":5126,
			"count":6844,
			"type":"VEC3"
		},
		{
			"bufferView":18,
			"componentType":5126,
			"count":6844,
			"type":"VEC2"
		},
		{
			"bufferView":19,
			"componentType":5123,
			"count":38220,
			"type":"SCALAR"
		},
		{
			"bufferView":20,
			"componentType":5126,
			"count":22681,
			"max":[
				0.4248914420604706,
				0.38390377163887024,
				0.32774072885513306
			],
			"min":[
				-0.4248885214328766,
				-0.37481924891471863,
				-0.31044232845306396
			],
			"type":"VEC3"
		},
		{
			"bufferView":21,
			"componentType":5126,
			"count":22681,
			"type":"VEC3"
		},
		{
			"bufferView":22,
			"componentType":5126,
			"count":22681,
			"type":"VEC2"
		},
		{
			"bufferView":23,
			"componentType":5123,
			"count":133434,
			"type":"SCALAR"
		},
		{
			"bufferView":24,
			"componentType":5126,
			"count":1047,
			"max":[
				0.6342644691467285,
				0.13834576308727264,
				-0.4156443774700165
			],
			"min":[
				0.42903947830200195,
				-0.1715412437915802,
				-0.712794303894043
			],
			"type":"VEC3"
		},
		{
			"bufferView":25,
			"componentType":5126,
			"count":1047,
			"type":"VEC3"
		},
		{
			"bufferView":26,
			"componentType":5126,
			"count":1047,
			"type":"VEC2"
		},
		{
			"bufferView":27,
			"componentType":5123,
			"count":5958,
			"type":"SCALAR"
		},
		{
			"bufferView":28,
			"componentType":5126,
			"count":3969,
			"max":[
				0.39825648069381714,
				0.4374197721481323,
				-0.6560972929000854
			],
			"min":[
				-0.39824551343917847,
				-0.3590822219848633,
				-0.9136823415756226
			],
			"type":"VEC3"
		},
		{
			"bufferView":29,
			"componentType":5126,
			"count":3969,
			"type":"VEC3"
		},
		{
			"bufferView":30,
			"componentType":5126,
			"count":3969,
			"type":"VEC2"
		},
		{
			"bufferView":31,
			"componentType":5123,
			"count":23424,
			"type":"SCALAR"
		},
		{
			"bufferView":32,
			"componentType":5126,
			"count":1050,
			"max":[
				-0.4290355145931244,
				0.13834576308727264,
				-0.4156443774700165
			],
			"min":[
				-0.6342605352401733,
				-0.1715412437915802,
				-0.712794303894043
			],
			"type":"VEC3"
		},
		{
			"bufferView":33,
			"componentType":5126,
			"count":1050,
			"type":"VEC3"
		},
		{
			"bufferView":34,
			"componentType":5126,
			"count":1050,
			"type":"VEC2"
		},
		{
			"bufferView":35,
			"componentType":5123,
			"count":5958,
			"type":"SCALAR"
		},
		{
			"bufferView":36,
			"componentType":5126,
			"count":3,
			"max":[
				0.08333333333333333
			],
			"min":[
				0
			],
			"type":"SCALAR"
		},
		{
			"bufferView":37,
			"componentType":5126,
			"count":3,
			"type":"VEC3"
		},
		{
			"bufferView":38,
			"componentType":5126,
			"count":3,
			"type":"VEC4"
		},
		{
			"bufferView":39,
			"componentType":5126,
			"count":3,
			"type":"VEC3"
		},
		{
			"bufferView":40,
			"componentType":5126,
			"count":2,
			"max":[
				0.08333333333333333
			],
			"min":[
				0
			],
			"type":"SCALAR"
		},
		{
			"bufferView":41,
			"componentType":5126,
			"count":2,
			"type":"VEC3"
		},
		{
			"bufferView":42,
			"componentType":5126,
			"count":3,
			"type":"VEC4"
		},
		{
			"bufferView":43,
			"componentType":5126,
			"count":3,
			"type":"VEC3"
		},
		{
			"bufferView":44,
			"componentType":5126,
			"count":3,
			"type":"VEC3"
		},
		{
			"bufferView":45,
			"componentType":5126,
			"count":3,
			"type":"VEC4"
		},
		{
			"bufferView":46,
			"componentType":5126,
			"count":3,
			"type":"VEC3"
		},
		{
			"bufferView":47,
			"componentType":5126,
			"count":3,
			"type":"VEC4"
		},
		{
			"bufferView":48,
			"componentType":5126,
			"count":3,
			"type":"VEC3"
		}
	],
	"bufferViews":[
		{
			"buffer":0,
			"byteLength":853176,
			"byteOffset":0,
			"target":34962
		},
		{
			"buffer":0,
			"byteLength":853176,
			"byteOffset":853176,
			"target":34962
		},
		{
			"buffer":0,
			"byteLength":568784,
			"byteOffset":1706352,
			"target":34962
		},
		{
			"buffer":0,
			"byteLength":1486572,
			"byteOffset":2275136,
			"target":34963
		},
		{
			"buffer":0,
			"byteLength":13896,
			"byteOffset":3761708,
			"target":34962
		},
		{
			"buffer":0,
			"byteLength":13896,
			"byteOffset":3775604,
			"target":34962
		},
		{
			"buffer":0,
			"byteLength":9264,
			"byteOffset":3789500,
			"target":34962
		},
		{
			"buffer":0,
			"byteLength":11424,
			"byteOffset":3798764,
			"target":34963
		},
		{
			"buffer":0,
			"byteLength":329100,
			"byteOffset":3810188,
			"target":34962
		},
		{
			"buffer":0,
			"byteLength":329100,
			"byteOffset":4139288,
			"target":34962
		},
		{
			"buffer":0,
			"byteLength":219400,
			"byteOffset":4468388,
			"target":34962
		},
		{
			"buffer":0,
			"byteLength":305514,
			"byteOffset":4687788,
			"target":34963
		},
		{
			"buffer":0,
			"byteLength":14952,
			"byteOffset":4993304,
			"target":34962
		},
		{
			"buffer":0,
			"byteLength":14952,
			"byteOffset":5008256,
			"target":34962
		},
		{
			"buffer":0,
			"byteLength":9968,
			"byteOffset":5023208,
			"target":34962
		},
		{
			"buffer":0,
			"byteLength":13248,
			"byteOffset":5033176,
			"target":34963
		},
		{
			"buffer":0,
			"byteLength":82128,
			"byteOffset":5046424,
			"target":34962
		},
		{
			"buffer":0,
			"byteLength":82128,
			"byteOffset":5128552,
			"target":34962
		},
		{
			"buffer":0,
			"byteLength":54752,
			"byteOffset":5210680,
			"target":34962
		},
		{
			"buffer":0,
			"byteLength":76440,
			"byteOffset":5265432,
			"target":34963
		},
		{
			"buffer":0,
			"byteLength":272172,
			"byteOffset":5341872,
			"target":34962
		},
		{
			"buffer":0,
			"byteLength":272172,
			"byteOffset":5614044,
			"target":34962
		},
		{
			"buffer":0,
			"byteLength":181448,
			"byteOffset":5886216,
			"target":34962
		},
		{
			"buffer":0,
			"byteLength":266868,
			"byteOffset":6067664,
			"target":34963
		},
		{
			"buffer":0,
			"byteLength":12564,
			"byteOffset":6334532,
			"target":34962
		},
		{
			"buffer":0,
			"byteLength":12564,
			"byteOffset":6347096,
			"target":34962
		},
		{
			"buffer":0,
			"byteLength":8376,
			"byteOffset":6359660,
			"target":34962
		},
		{
			"buffer":0,
			"byteLength":11916,
			"byteOffset":6368036,
			"target":34963
		},
		{
			"buffer":0,
			"byteLength":47628,
			"byteOffset":6379952,
			"target":34962
		},
		{
			"buffer":0,
			"byteLength":47628,
			"byteOffset":6427580,
			"target":34962
		},
		{
			"buffer":0,
			"byteLength":31752,
			"byteOffset":6475208,
			"target":34962
		},
		{
			"buffer":0,
			"byteLength":46848,
			"byteOffset":6506960,
			"target":34963
		},
		{
			"buffer":0,
			"byteLength":12600,
			"byteOffset":6553808,
			"target":34962
		},
		{
			"buffer":0,
			"byteLength":12600,
			"byteOffset":6566408,
			"target":34962
		},
		{
			"buffer":0,
			"byteLength":8400,
			"byteOffset":6579008,
			"target":34962
		},
		{
			"buffer":0,
			"byteLength":11916,
			"byteOffset":6587408,
			"target":34963
		},
		{
			"buffer":0,
			"byteLength":12,
			"byteOffset":6599324
		},
		{
			"buffer":0,
			"byteLength":36,
			"byteOffset":6599336
		},
		{
			"buffer":0,
			"byteLength":48,
			"byteOffset":6599372
		},
		{
			"buffer":0,
			"byteLength":36,
			"byteOffset":6599420
		},
		{
			"buffer":0,
			"byteLength":8,
			"byteOffset":6599456
		},
		{
			"buffer":0,
			"byteLength":24,
			"byteOffset":6599464
		},
		{
			"buffer":0,
			"byteLength":48,
			"byteOffset":6599488
		},
		{
			"buffer":0,
			"byteLength":36,
			"byteOffset":6599536
		},
		{
			"buffer":0,
			"byteLength":36,
			"byteOffset":6599572
		},
		{
			"buffer":0,
			"byteLength":48,
			"byteOffset":6599608
		},
		{
			"buffer":0,
			"byteLength":36,
			"byteOffset":6599656
		},
		{
			"buffer":0,
			"byteLength":48,
			"byteOffset":6599692
		},
		{
			"buffer":0,
			"byteLength":36,
			"byteOffset":6599740
		}
	],
	"samplers":[
		{
			"magFilter":9729,
			"minFilter":9987
		}
	],
	"buffers":[
		{
			"byteLength":6599776,
			"uri":"overcooked_-_pug_character.bin"
		}
	]
}
