{
	"asset":{
		"generator":"Khronos glTF Blender I/O v4.5.49",
		"version":"2.0"
	},
	"extensionsUsed":[
		"KHR_materials_specular",
		"KHR_materials_ior"
	],
	"scene":0,
	"scenes":[
		{
			"name":"Scene",
			"nodes":[
				12
			]
		}
	],
	"nodes":[
		{
			"mesh":0,
			"name":"dirtyPlate1",
			"rotation":[
				-0.07066274434328079,
				0.2415613830089569,
				0.07033960521221161,
				0.9652498364448547
			],
			"translation":[
				-0.9040320515632629,
				0.093975730240345,
				-0.10661674290895462
			]
		},
		{
			"mesh":1,
			"name":"dirtyPlate2",
			"rotation":[
				-0.08870484679937363,
				-0.7628710865974426,
				-0.6367062926292419,
				0.06902383267879486
			],
			"scale":[
				2.715756893157959,
				2.7157561779022217,
				2.715756416320801
			],
			"translation":[
				-0.8193950653076172,
				-0.08313813805580139,
				0.20674125850200653
			]
		},
		{
			"mesh":2,
			"name":"dirtyPlate3",
			"rotation":[
				-0.20937485992908478,
				0.521374523639679,
				0.22077766060829163,
				0.797237753868103
			],
			"translation":[
				-1.2231543064117432,
				0.02234126813709736,
				-0.05692918971180916
			]
		},
		{
			"children":[
				0,
				1,
				2
			],
			"name":"dirtyPlate",
			"rotation":[
				0.70710688829422,
				0,
				0,
				0.7071066498756409
			]
		},
		{
			"mesh":3,
			"name":"group1",
			"translation":[
				-0.05561697483062744,
				-0.30380669236183167,
				0.12172667682170868
			]
		},
		{
			"mesh":4,
			"name":"group2",
			"translation":[
				-0.05561697483062744,
				-0.30380672216415405,
				0.1917266696691513
			]
		},
		{
			"mesh":5,
			"name":"group3",
			"translation":[
				-0.05561697483062744,
				-0.30380675196647644,
				0.2617266774177551
			]
		},
		{
			"mesh":6,
			"name":"group4",
			"translation":[
				-0.05561697483062744,
				-0.30380678176879883,
				0.33172667026519775
			]
		},
		{
			"mesh":7,
			"name":"group5",
			"translation":[
				-0.05561697483062744,
				-0.3038068115711212,
				0.4017266035079956
			]
		},
		{
			"mesh":8,
			"name":"group6",
			"translation":[
				-0.05561697483062744,
				-0.3038068413734436,
				0.4717267155647278
			]
		},
		{
			"children":[
				4,
				5,
				6,
				7,
				8,
				9
			],
			"name":"overcooked_assets.obj.cleaner.materialmerger.gles",
			"translation":[
				1.0307430028915405,
				0.3651134967803955,
				0.337012380361557
			]
		},
		{
			"mesh":9,
			"name":"water",
			"translation":[
				-0.022120952606201172,
				-0.055678632110357285,
				0.4701154828071594
			]
		},
		{
			"children":[
				3,
				10,
				11
			],
			"mesh":10,
			"name":"washSink",
			"rotation":[
				-0.7071069478988647,
				0,
				0,
				0.7071065902709961
			]
		}
	],
	"materials":[
		{
			"doubleSided":true,
			"extensions":{
				"KHR_materials_specular":{
					"specularFactor":0.4000000059604645
				},
				"KHR_materials_ior":{
					"ior":1
				}
			},
			"name":"\u6750\u8d28",
			"pbrMetallicRoughness":{
				"baseColorTexture":{
					"index":0
				},
				"metallicFactor":0,
				"roughnessFactor":0.8671577572822571
			}
		},
		{
			"doubleSided":true,
			"extensions":{
				"KHR_materials_specular":{
					"specularFactor":0.4000000059604645
				},
				"KHR_materials_ior":{
					"ior":1
				}
			},
			"name":"DirtyPlate.001",
			"pbrMetallicRoughness":{
				"baseColorTexture":{
					"index":1
				},
				"metallicFactor":0,
				"roughnessFactor":0.8671577572822571
			}
		},
		{
			"doubleSided":true,
			"name":"Kitchen_Utensils.007",
			"pbrMetallicRoughness":{
				"baseColorTexture":{
					"index":2
				},
				"metallicRoughnessTexture":{
					"index":3
				}
			}
		},
		{
			"doubleSided":true,
			"emissiveFactor":[
				1,
				1,
				1
			],
			"emissiveTexture":{
				"index":4
			},
			"name":"Kitchen_Cabins_Double.001",
			"normalTexture":{
				"index":5
			},
			"pbrMetallicRoughness":{
				"baseColorTexture":{
					"index":6
				},
				"metallicRoughnessTexture":{
					"index":7
				}
			}
		}
	],
	"meshes":[
		{
			"name":"Object_3.001",
			"primitives":[
				{
					"attributes":{
						"POSITION":0,
						"NORMAL":1,
						"TEXCOORD_0":2
					},
					"indices":3,
					"material":0
				}
			]
		},
		{
			"name":"DirtyPlate_ncl1_2.001",
			"primitives":[
				{
					"attributes":{
						"POSITION":4,
						"NORMAL":5,
						"TEXCOORD_0":6
					},
					"indices":7,
					"material":1
				}
			]
		},
		{
			"name":"Object_3.006",
			"primitives":[
				{
					"attributes":{
						"POSITION":8,
						"NORMAL":9,
						"TEXCOORD_0":10
					},
					"indices":11,
					"material":0
				}
			]
		},
		{
			"name":"plate1",
			"primitives":[
				{
					"attributes":{
						"POSITION":12,
						"NORMAL":13,
						"TEXCOORD_0":14
					},
					"indices":15,
					"material":2
				}
			]
		},
		{
			"name":"plate2",
			"primitives":[
				{
					"attributes":{
						"POSITION":16,
						"NORMAL":17,
						"TEXCOORD_0":18
					},
					"indices":15,
					"material":2
				}
			]
		},
		{
			"name":"plate3",
			"primitives":[
				{
					"attributes":{
						"POSITION":19,
						"NORMAL":20,
						"TEXCOORD_0":21
					},
					"indices":15,
					"material":2
				}
			]
		},
		{
			"name":"plate4",
			"primitives":[
				{
					"attributes":{
						"POSITION":22,
						"NORMAL":23,
						"TEXCOORD_0":24
					},
					"indices":15,
					"material":2
				}
			]
		},
		{
			"name":"plate5",
			"primitives":[
				{
					"attributes":{
						"POSITION":25,
						"NORMAL":26,
						"TEXCOORD_0":27
					},
					"indices":15,
					"material":2
				}
			]
		},
		{
			"name":"plate6",
			"primitives":[
				{
					"attributes":{
						"POSITION":28,
						"NORMAL":29,
						"TEXCOORD_0":30
					},
					"indices":15,
					"material":2
				}
			]
		},
		{
			"name":"Object_2.002",
			"primitives":[
				{
					"attributes":{
						"POSITION":31,
						"NORMAL":32,
						"TEXCOORD_0":33
					},
					"indices":34,
					"material":3
				}
			]
		},
		{
			"name":"Object_2.001",
			"primitives":[
				{
					"attributes":{
						"POSITION":35,
						"NORMAL":36,
						"TEXCOORD_0":37
					},
					"indices":38,
					"material":3
				}
			]
		}
	],
	"textures":[
		{
			"sampler":0,
			"source":0
		},
		{
			"sampler":0,
			"source":0
		},
		{
			"sampler":0,
			"source":1
		},
		{
			"sampler":0,
			"source":2
		},
		{
			"sampler":0,
			"source":3
		},
		{
			"sampler":0,
			"source":4
		},
		{
			"sampler":0,
			"source":5
		},
		{
			"sampler":0,
			"source":6
		}
	],
	"images":[
		{
			"mimeType":"image/png",
			"name":"DirtyPlate",
			"uri":"DirtyPlate.png"
		},
		{
			"mimeType":"image/png",
			"name":"Image_9",
			"uri":"Image_9.png"
		},
		{
			"mimeType":"image/png",
			"name":"Image_10",
			"uri":"Image_10.png"
		},
		{
			"mimeType":"image/png",
			"name":"Image_7",
			"uri":"Image_7.png"
		},
		{
			"mimeType":"image/png",
			"name":"Image_8",
			"uri":"Image_8.png"
		},
		{
			"mimeType":"image/png",
			"name":"Image_5",
			"uri":"Image_5.png"
		},
		{
			"mimeType":"image/png",
			"name":"Image_6",
			"uri":"Image_6.png"
		}
	],
	"accessors":[
		{
			"bufferView":0,
			"componentType":5126,
			"count":151,
			"max":[
				0.7505870461463928,
				0.7505868673324585,
				0.09956410527229309
			],
			"min":[
				-0.7505864500999451,
				-5.0255096084583784e-08,
				-0.009842957369983196
			],
			"type":"VEC3"
		},
		{
			"bufferView":1,
			"componentType":5126,
			"count":151,
			"type":"VEC3"
		},
		{
			"bufferView":2,
			"componentType":5126,
			"count":151,
			"type":"VEC2"
		},
		{
			"bufferView":3,
			"componentType":5123,
			"count":411,
			"type":"SCALAR"
		},
		{
			"bufferView":4,
			"componentType":5126,
			"count":162,
			"max":[
				0.27577900886535645,
				0.09179417788982391,
				0.27559947967529297
			],
			"min":[
				-0.26319795846939087,
				-0.09283582121133804,
				0.007415473461151123
			],
			"type":"VEC3"
		},
		{
			"bufferView":5,
			"componentType":5126,
			"count":162,
			"type":"VEC3"
		},
		{
			"bufferView":6,
			"componentType":5126,
			"count":162,
			"type":"VEC2"
		},
		{
			"bufferView":7,
			"componentType":5123,
			"count":675,
			"type":"SCALAR"
		},
		{
			"bufferView":8,
			"componentType":5126,
			"count":145,
			"max":[
				0.7505870461463928,
				0.7505868673324585,
				0.09956410527229309
			],
			"min":[
				-0.7250108122825623,
				-0.19426611065864563,
				-0.009842957369983196
			],
			"type":"VEC3"
		},
		{
			"bufferView":9,
			"componentType":5126,
			"count":145,
			"type":"VEC3"
		},
		{
			"bufferView":10,
			"componentType":5126,
			"count":145,
			"type":"VEC2"
		},
		{
			"bufferView":11,
			"componentType":5123,
			"count":393,
			"type":"SCALAR"
		},
		{
			"bufferView":12,
			"componentType":5126,
			"count":290,
			"max":[
				0.7505870461463928,
				0.7505869269371033,
				0.09956410527229309
			],
			"min":[
				-0.7505864500999451,
				-0.7505860924720764,
				-0.009842958301305771
			],
			"type":"VEC3"
		},
		{
			"bufferView":13,
			"componentType":5126,
			"count":290,
			"type":"VEC3"
		},
		{
			"bufferView":14,
			"componentType":5126,
			"count":290,
			"type":"VEC2"
		},
		{
			"bufferView":15,
			"componentType":5123,
			"count":864,
			"type":"SCALAR"
		},
		{
			"bufferView":16,
			"componentType":5126,
			"count":290,
			"max":[
				0.7505870461463928,
				0.7505869269371033,
				0.09956410527229309
			],
			"min":[
				-0.7505864500999451,
				-0.7505860924720764,
				-0.009842958301305771
			],
			"type":"VEC3"
		},
		{
			"bufferView":17,
			"componentType":5126,
			"count":290,
			"type":"VEC3"
		},
		{
			"bufferView":18,
			"componentType":5126,
			"count":290,
			"type":"VEC2"
		},
		{
			"bufferView":19,
			"componentType":5126,
			"count":290,
			"max":[
				0.7505870461463928,
				0.7505869269371033,
				0.09956410527229309
			],
			"min":[
				-0.7505864500999451,
				-0.7505860924720764,
				-0.009842958301305771
			],
			"type":"VEC3"
		},
		{
			"bufferView":20,
			"componentType":5126,
			"count":290,
			"type":"VEC3"
		},
		{
			"bufferView":21,
			"componentType":5126,
			"count":290,
			"type":"VEC2"
		},
		{
			"bufferView":22,
			"componentType":5126,
			"count":290,
			"max":[
				0.7505870461463928,
				0.7505869269371033,
				0.09956410527229309
			],
			"min":[
				-0.7505864500999451,
				-0.7505860924720764,
				-0.009842958301305771
			],
			"type":"VEC3"
		},
		{
			"bufferView":23,
			"componentType":5126,
			"count":290,
			"type":"VEC3"
		},
		{
			"bufferView":24,
			"componentType":5126,
			"count":290,
			"type":"VEC2"
		},
		{
			"bufferView":25,
			"componentType":5126,
			"count":290,
			"max":[
				0.7505870461463928,
				0.7505869269371033,
				0.09956410527229309
			],
			"min":[
				-0.7505864500999451,
				-0.7505860924720764,
				-0.009842958301305771
			],
			"type":"VEC3"
		},
		{
			"bufferView":26,
			"componentType":5126,
			"count":290,
			"type":"VEC3"
		},
		{
			"bufferView":27,
			"componentType":5126,
			"count":290,
			"type":"VEC2"
		},
		{
			"bufferView":28,
			"componentType":5126,
			"count":290,
			"max":[
				0.7505870461463928,
				0.7505869269371033,
				0.09956410527229309
			],
			"min":[
				-0.7505864500999451,
				-0.7505860924720764,
				-0.009842958301305771
			],
			"type":"VEC3"
		},
		{
			"bufferView":29,
			"componentType":5126,
			"count":290,
			"type":"VEC3"
		},
		{
			"bufferView":30,
			"componentType":5126,
			"count":290,
			"type":"VEC2"
		},
		{
			"bufferView":31,
			"componentType":5126,
			"count":20,
			"max":[
				-0.1453685760498047,
				0.758026123046875,
				-0.22373640537261963
			],
			"min":[
				-1.760643482208252,
				-0.524054765701294,
				-0.22373640537261963
			],
			"type":"VEC3"
		},
		{
			"bufferView":32,
			"componentType":5126,
			"count":20,
			"type":"VEC3"
		},
		{
			"bufferView":33,
			"componentType":5126,
			"count":20,
			"type":"VEC2"
		},
		{
			"bufferView":34,
			"componentType":5123,
			"count":54,
			"type":"SCALAR"
		},
		{
			"bufferView":35,
			"componentType":5126,
			"count":1409,
			"max":[
				1.9998786449432373,
				1.0611865520477295,
				1.7977491617202759
			],
			"min":[
				-1.9998794794082642,
				-1.061185598373413,
				-0.49999985098838806
			],
			"type":"VEC3"
		},
		{
			"bufferView":36,
			"componentType":5126,
			"count":1409,
			"type":"VEC3"
		},
		{
			"bufferView":37,
			"componentType":5126,
			"count":1409,
			"type":"VEC2"
		},
		{
			"bufferView":38,
			"componentType":5123,
			"count":2634,
			"type":"SCALAR"
		}
	],
	"bufferViews":[
		{
			"buffer":0,
			"byteLength":1812,
			"byteOffset":0,
			"target":34962
		},
		{
			"buffer":0,
			"byteLength":1812,
			"byteOffset":1812,
			"target":34962
		},
		{
			"buffer":0,
			"byteLength":1208,
			"byteOffset":3624,
			"target":34962
		},
		{
			"buffer":0,
			"byteLength":822,
			"byteOffset":4832,
			"target":34963
		},
		{
			"buffer":0,
			"byteLength":1944,
			"byteOffset":5656,
			"target":34962
		},
		{
			"buffer":0,
			"byteLength":1944,
			"byteOffset":7600,
			"target":34962
		},
		{
			"buffer":0,
			"byteLength":1296,
			"byteOffset":9544,
			"target":34962
		},
		{
			"buffer":0,
			"byteLength":1350,
			"byteOffset":10840,
			"target":34963
		},
		{
			"buffer":0,
			"byteLength":1740,
			"byteOffset":12192,
			"target":34962
		},
		{
			"buffer":0,
			"byteLength":1740,
			"byteOffset":13932,
			"target":34962
		},
		{
			"buffer":0,
			"byteLength":1160,
			"byteOffset":15672,
			"target":34962
		},
		{
			"buffer":0,
			"byteLength":786,
			"byteOffset":16832,
			"target":34963
		},
		{
			"buffer":0,
			"byteLength":3480,
			"byteOffset":17620,
			"target":34962
		},
		{
			"buffer":0,
			"byteLength":3480,
			"byteOffset":21100,
			"target":34962
		},
		{
			"buffer":0,
			"byteLength":2320,
			"byteOffset":24580,
			"target":34962
		},
		{
			"buffer":0,
			"byteLength":1728,
			"byteOffset":26900,
			"target":34963
		},
		{
			"buffer":0,
			"byteLength":3480,
			"byteOffset":28628,
			"target":34962
		},
		{
			"buffer":0,
			"byteLength":3480,
			"byteOffset":32108,
			"target":34962
		},
		{
			"buffer":0,
			"byteLength":2320,
			"byteOffset":35588,
			"target":34962
		},
		{
			"buffer":0,
			"byteLength":3480,
			"byteOffset":37908,
			"target":34962
		},
		{
			"buffer":0,
			"byteLength":3480,
			"byteOffset":41388,
			"target":34962
		},
		{
			"buffer":0,
			"byteLength":2320,
			"byteOffset":44868,
			"target":34962
		},
		{
			"buffer":0,
			"byteLength":3480,
			"byteOffset":47188,
			"target":34962
		},
		{
			"buffer":0,
			"byteLength":3480,
			"byteOffset":50668,
			"target":34962
		},
		{
			"buffer":0,
			"byteLength":2320,
			"byteOffset":54148,
			"target":34962
		},
		{
			"buffer":0,
			"byteLength":3480,
			"byteOffset":56468,
			"target":34962
		},
		{
			"buffer":0,
			"byteLength":3480,
			"byteOffset":59948,
			"target":34962
		},
		{
			"buffer":0,
			"byteLength":2320,
			"byteOffset":63428,
			"target":34962
		},
		{
			"buffer":0,
			"byteLength":3480,
			"byteOffset":65748,
			"target":34962
		},
		{
			"buffer":0,
			"byteLength":3480,
			"byteOffset":69228,
			"target":34962
		},
		{
			"buffer":0,
			"byteLength":2320,
			"byteOffset":72708,
			"target":34962
		},
		{
			"buffer":0,
			"byteLength":240,
			"byteOffset":75028,
			"target":34962
		},
		{
			"buffer":0,
			"byteLength":240,
			"byteOffset":75268,
			"target":34962
		},
		{
			"buffer":0,
			"byteLength":160,
			"byteOffset":75508,
			"target":34962
		},
		{
			"buffer":0,
			"byteLength":108,
			"byteOffset":75668,
			"target":34963
		},
		{
			"buffer":0,
			"byteLength":16908,
			"byteOffset":75776,
			"target":34962
		},
		{
			"buffer":0,
			"byteLength":16908,
			"byteOffset":92684,
			"target":34962
		},
		{
			"buffer":0,
			"byteLength":11272,
			"byteOffset":109592,
			"target":34962
		},
		{
			"buffer":0,
			"byteLength":5268,
			"byteOffset":120864,
			"target":34963
		}
	],
	"samplers":[
		{
			"magFilter":9729,
			"minFilter":9987
		}
	],
	"buffers":[
		{
			"byteLength":126132,
			"uri":"washSink.bin"
		}
	]
}
